G75*
%MOIN*%
%OFA0B0*%
%FSLAX25Y25*%
%IPPOS*%
%LPD*%
%AMOC8*
5,1,8,0,0,1.08239X$1,22.5*
%
%ADD10C,0.00000*%
D10*
X0037456Y0031440D02*
X0037456Y0222771D01*
X0170178Y0222771D01*
X0170178Y0031440D01*
X0037456Y0031440D01*
X0040735Y0066440D02*
X0040737Y0066580D01*
X0040743Y0066720D01*
X0040753Y0066859D01*
X0040767Y0066998D01*
X0040785Y0067137D01*
X0040806Y0067275D01*
X0040832Y0067413D01*
X0040862Y0067550D01*
X0040895Y0067685D01*
X0040933Y0067820D01*
X0040974Y0067954D01*
X0041019Y0068087D01*
X0041067Y0068218D01*
X0041120Y0068347D01*
X0041176Y0068476D01*
X0041235Y0068602D01*
X0041299Y0068727D01*
X0041365Y0068850D01*
X0041436Y0068971D01*
X0041509Y0069090D01*
X0041586Y0069207D01*
X0041667Y0069321D01*
X0041750Y0069433D01*
X0041837Y0069543D01*
X0041927Y0069651D01*
X0042019Y0069755D01*
X0042115Y0069857D01*
X0042214Y0069957D01*
X0042315Y0070053D01*
X0042419Y0070147D01*
X0042526Y0070237D01*
X0042635Y0070324D01*
X0042747Y0070409D01*
X0042861Y0070490D01*
X0042977Y0070568D01*
X0043095Y0070642D01*
X0043216Y0070713D01*
X0043338Y0070781D01*
X0043463Y0070845D01*
X0043589Y0070906D01*
X0043716Y0070963D01*
X0043846Y0071016D01*
X0043977Y0071066D01*
X0044109Y0071111D01*
X0044242Y0071154D01*
X0044377Y0071192D01*
X0044512Y0071226D01*
X0044649Y0071257D01*
X0044786Y0071284D01*
X0044924Y0071306D01*
X0045063Y0071325D01*
X0045202Y0071340D01*
X0045341Y0071351D01*
X0045481Y0071358D01*
X0045621Y0071361D01*
X0045761Y0071360D01*
X0045901Y0071355D01*
X0046040Y0071346D01*
X0046180Y0071333D01*
X0046319Y0071316D01*
X0046457Y0071295D01*
X0046595Y0071271D01*
X0046732Y0071242D01*
X0046868Y0071210D01*
X0047003Y0071173D01*
X0047137Y0071133D01*
X0047270Y0071089D01*
X0047401Y0071041D01*
X0047531Y0070990D01*
X0047660Y0070935D01*
X0047787Y0070876D01*
X0047912Y0070813D01*
X0048035Y0070748D01*
X0048157Y0070678D01*
X0048276Y0070605D01*
X0048394Y0070529D01*
X0048509Y0070450D01*
X0048622Y0070367D01*
X0048732Y0070281D01*
X0048840Y0070192D01*
X0048945Y0070100D01*
X0049048Y0070005D01*
X0049148Y0069907D01*
X0049245Y0069807D01*
X0049339Y0069703D01*
X0049431Y0069597D01*
X0049519Y0069489D01*
X0049604Y0069378D01*
X0049686Y0069264D01*
X0049765Y0069148D01*
X0049840Y0069031D01*
X0049912Y0068911D01*
X0049980Y0068789D01*
X0050045Y0068665D01*
X0050107Y0068539D01*
X0050165Y0068412D01*
X0050219Y0068283D01*
X0050270Y0068152D01*
X0050316Y0068020D01*
X0050359Y0067887D01*
X0050399Y0067753D01*
X0050434Y0067618D01*
X0050466Y0067481D01*
X0050493Y0067344D01*
X0050517Y0067206D01*
X0050537Y0067068D01*
X0050553Y0066929D01*
X0050565Y0066789D01*
X0050573Y0066650D01*
X0050577Y0066510D01*
X0050577Y0066370D01*
X0050573Y0066230D01*
X0050565Y0066091D01*
X0050553Y0065951D01*
X0050537Y0065812D01*
X0050517Y0065674D01*
X0050493Y0065536D01*
X0050466Y0065399D01*
X0050434Y0065262D01*
X0050399Y0065127D01*
X0050359Y0064993D01*
X0050316Y0064860D01*
X0050270Y0064728D01*
X0050219Y0064597D01*
X0050165Y0064468D01*
X0050107Y0064341D01*
X0050045Y0064215D01*
X0049980Y0064091D01*
X0049912Y0063969D01*
X0049840Y0063849D01*
X0049765Y0063732D01*
X0049686Y0063616D01*
X0049604Y0063502D01*
X0049519Y0063391D01*
X0049431Y0063283D01*
X0049339Y0063177D01*
X0049245Y0063073D01*
X0049148Y0062973D01*
X0049048Y0062875D01*
X0048945Y0062780D01*
X0048840Y0062688D01*
X0048732Y0062599D01*
X0048622Y0062513D01*
X0048509Y0062430D01*
X0048394Y0062351D01*
X0048276Y0062275D01*
X0048157Y0062202D01*
X0048035Y0062132D01*
X0047912Y0062067D01*
X0047787Y0062004D01*
X0047660Y0061945D01*
X0047531Y0061890D01*
X0047401Y0061839D01*
X0047270Y0061791D01*
X0047137Y0061747D01*
X0047003Y0061707D01*
X0046868Y0061670D01*
X0046732Y0061638D01*
X0046595Y0061609D01*
X0046457Y0061585D01*
X0046319Y0061564D01*
X0046180Y0061547D01*
X0046040Y0061534D01*
X0045901Y0061525D01*
X0045761Y0061520D01*
X0045621Y0061519D01*
X0045481Y0061522D01*
X0045341Y0061529D01*
X0045202Y0061540D01*
X0045063Y0061555D01*
X0044924Y0061574D01*
X0044786Y0061596D01*
X0044649Y0061623D01*
X0044512Y0061654D01*
X0044377Y0061688D01*
X0044242Y0061726D01*
X0044109Y0061769D01*
X0043977Y0061814D01*
X0043846Y0061864D01*
X0043716Y0061917D01*
X0043589Y0061974D01*
X0043463Y0062035D01*
X0043338Y0062099D01*
X0043216Y0062167D01*
X0043095Y0062238D01*
X0042977Y0062312D01*
X0042861Y0062390D01*
X0042747Y0062471D01*
X0042635Y0062556D01*
X0042526Y0062643D01*
X0042419Y0062733D01*
X0042315Y0062827D01*
X0042214Y0062923D01*
X0042115Y0063023D01*
X0042019Y0063125D01*
X0041927Y0063229D01*
X0041837Y0063337D01*
X0041750Y0063447D01*
X0041667Y0063559D01*
X0041586Y0063673D01*
X0041509Y0063790D01*
X0041436Y0063909D01*
X0041365Y0064030D01*
X0041299Y0064153D01*
X0041235Y0064278D01*
X0041176Y0064404D01*
X0041120Y0064533D01*
X0041067Y0064662D01*
X0041019Y0064793D01*
X0040974Y0064926D01*
X0040933Y0065060D01*
X0040895Y0065195D01*
X0040862Y0065330D01*
X0040832Y0065467D01*
X0040806Y0065605D01*
X0040785Y0065743D01*
X0040767Y0065882D01*
X0040753Y0066021D01*
X0040743Y0066160D01*
X0040737Y0066300D01*
X0040735Y0066440D01*
X0043335Y0214040D02*
X0043337Y0214180D01*
X0043343Y0214320D01*
X0043353Y0214459D01*
X0043367Y0214598D01*
X0043385Y0214737D01*
X0043406Y0214875D01*
X0043432Y0215013D01*
X0043462Y0215150D01*
X0043495Y0215285D01*
X0043533Y0215420D01*
X0043574Y0215554D01*
X0043619Y0215687D01*
X0043667Y0215818D01*
X0043720Y0215947D01*
X0043776Y0216076D01*
X0043835Y0216202D01*
X0043899Y0216327D01*
X0043965Y0216450D01*
X0044036Y0216571D01*
X0044109Y0216690D01*
X0044186Y0216807D01*
X0044267Y0216921D01*
X0044350Y0217033D01*
X0044437Y0217143D01*
X0044527Y0217251D01*
X0044619Y0217355D01*
X0044715Y0217457D01*
X0044814Y0217557D01*
X0044915Y0217653D01*
X0045019Y0217747D01*
X0045126Y0217837D01*
X0045235Y0217924D01*
X0045347Y0218009D01*
X0045461Y0218090D01*
X0045577Y0218168D01*
X0045695Y0218242D01*
X0045816Y0218313D01*
X0045938Y0218381D01*
X0046063Y0218445D01*
X0046189Y0218506D01*
X0046316Y0218563D01*
X0046446Y0218616D01*
X0046577Y0218666D01*
X0046709Y0218711D01*
X0046842Y0218754D01*
X0046977Y0218792D01*
X0047112Y0218826D01*
X0047249Y0218857D01*
X0047386Y0218884D01*
X0047524Y0218906D01*
X0047663Y0218925D01*
X0047802Y0218940D01*
X0047941Y0218951D01*
X0048081Y0218958D01*
X0048221Y0218961D01*
X0048361Y0218960D01*
X0048501Y0218955D01*
X0048640Y0218946D01*
X0048780Y0218933D01*
X0048919Y0218916D01*
X0049057Y0218895D01*
X0049195Y0218871D01*
X0049332Y0218842D01*
X0049468Y0218810D01*
X0049603Y0218773D01*
X0049737Y0218733D01*
X0049870Y0218689D01*
X0050001Y0218641D01*
X0050131Y0218590D01*
X0050260Y0218535D01*
X0050387Y0218476D01*
X0050512Y0218413D01*
X0050635Y0218348D01*
X0050757Y0218278D01*
X0050876Y0218205D01*
X0050994Y0218129D01*
X0051109Y0218050D01*
X0051222Y0217967D01*
X0051332Y0217881D01*
X0051440Y0217792D01*
X0051545Y0217700D01*
X0051648Y0217605D01*
X0051748Y0217507D01*
X0051845Y0217407D01*
X0051939Y0217303D01*
X0052031Y0217197D01*
X0052119Y0217089D01*
X0052204Y0216978D01*
X0052286Y0216864D01*
X0052365Y0216748D01*
X0052440Y0216631D01*
X0052512Y0216511D01*
X0052580Y0216389D01*
X0052645Y0216265D01*
X0052707Y0216139D01*
X0052765Y0216012D01*
X0052819Y0215883D01*
X0052870Y0215752D01*
X0052916Y0215620D01*
X0052959Y0215487D01*
X0052999Y0215353D01*
X0053034Y0215218D01*
X0053066Y0215081D01*
X0053093Y0214944D01*
X0053117Y0214806D01*
X0053137Y0214668D01*
X0053153Y0214529D01*
X0053165Y0214389D01*
X0053173Y0214250D01*
X0053177Y0214110D01*
X0053177Y0213970D01*
X0053173Y0213830D01*
X0053165Y0213691D01*
X0053153Y0213551D01*
X0053137Y0213412D01*
X0053117Y0213274D01*
X0053093Y0213136D01*
X0053066Y0212999D01*
X0053034Y0212862D01*
X0052999Y0212727D01*
X0052959Y0212593D01*
X0052916Y0212460D01*
X0052870Y0212328D01*
X0052819Y0212197D01*
X0052765Y0212068D01*
X0052707Y0211941D01*
X0052645Y0211815D01*
X0052580Y0211691D01*
X0052512Y0211569D01*
X0052440Y0211449D01*
X0052365Y0211332D01*
X0052286Y0211216D01*
X0052204Y0211102D01*
X0052119Y0210991D01*
X0052031Y0210883D01*
X0051939Y0210777D01*
X0051845Y0210673D01*
X0051748Y0210573D01*
X0051648Y0210475D01*
X0051545Y0210380D01*
X0051440Y0210288D01*
X0051332Y0210199D01*
X0051222Y0210113D01*
X0051109Y0210030D01*
X0050994Y0209951D01*
X0050876Y0209875D01*
X0050757Y0209802D01*
X0050635Y0209732D01*
X0050512Y0209667D01*
X0050387Y0209604D01*
X0050260Y0209545D01*
X0050131Y0209490D01*
X0050001Y0209439D01*
X0049870Y0209391D01*
X0049737Y0209347D01*
X0049603Y0209307D01*
X0049468Y0209270D01*
X0049332Y0209238D01*
X0049195Y0209209D01*
X0049057Y0209185D01*
X0048919Y0209164D01*
X0048780Y0209147D01*
X0048640Y0209134D01*
X0048501Y0209125D01*
X0048361Y0209120D01*
X0048221Y0209119D01*
X0048081Y0209122D01*
X0047941Y0209129D01*
X0047802Y0209140D01*
X0047663Y0209155D01*
X0047524Y0209174D01*
X0047386Y0209196D01*
X0047249Y0209223D01*
X0047112Y0209254D01*
X0046977Y0209288D01*
X0046842Y0209326D01*
X0046709Y0209369D01*
X0046577Y0209414D01*
X0046446Y0209464D01*
X0046316Y0209517D01*
X0046189Y0209574D01*
X0046063Y0209635D01*
X0045938Y0209699D01*
X0045816Y0209767D01*
X0045695Y0209838D01*
X0045577Y0209912D01*
X0045461Y0209990D01*
X0045347Y0210071D01*
X0045235Y0210156D01*
X0045126Y0210243D01*
X0045019Y0210333D01*
X0044915Y0210427D01*
X0044814Y0210523D01*
X0044715Y0210623D01*
X0044619Y0210725D01*
X0044527Y0210829D01*
X0044437Y0210937D01*
X0044350Y0211047D01*
X0044267Y0211159D01*
X0044186Y0211273D01*
X0044109Y0211390D01*
X0044036Y0211509D01*
X0043965Y0211630D01*
X0043899Y0211753D01*
X0043835Y0211878D01*
X0043776Y0212004D01*
X0043720Y0212133D01*
X0043667Y0212262D01*
X0043619Y0212393D01*
X0043574Y0212526D01*
X0043533Y0212660D01*
X0043495Y0212795D01*
X0043462Y0212930D01*
X0043432Y0213067D01*
X0043406Y0213205D01*
X0043385Y0213343D01*
X0043367Y0213482D01*
X0043353Y0213621D01*
X0043343Y0213760D01*
X0043337Y0213900D01*
X0043335Y0214040D01*
X0153335Y0213240D02*
X0153337Y0213380D01*
X0153343Y0213520D01*
X0153353Y0213659D01*
X0153367Y0213798D01*
X0153385Y0213937D01*
X0153406Y0214075D01*
X0153432Y0214213D01*
X0153462Y0214350D01*
X0153495Y0214485D01*
X0153533Y0214620D01*
X0153574Y0214754D01*
X0153619Y0214887D01*
X0153667Y0215018D01*
X0153720Y0215147D01*
X0153776Y0215276D01*
X0153835Y0215402D01*
X0153899Y0215527D01*
X0153965Y0215650D01*
X0154036Y0215771D01*
X0154109Y0215890D01*
X0154186Y0216007D01*
X0154267Y0216121D01*
X0154350Y0216233D01*
X0154437Y0216343D01*
X0154527Y0216451D01*
X0154619Y0216555D01*
X0154715Y0216657D01*
X0154814Y0216757D01*
X0154915Y0216853D01*
X0155019Y0216947D01*
X0155126Y0217037D01*
X0155235Y0217124D01*
X0155347Y0217209D01*
X0155461Y0217290D01*
X0155577Y0217368D01*
X0155695Y0217442D01*
X0155816Y0217513D01*
X0155938Y0217581D01*
X0156063Y0217645D01*
X0156189Y0217706D01*
X0156316Y0217763D01*
X0156446Y0217816D01*
X0156577Y0217866D01*
X0156709Y0217911D01*
X0156842Y0217954D01*
X0156977Y0217992D01*
X0157112Y0218026D01*
X0157249Y0218057D01*
X0157386Y0218084D01*
X0157524Y0218106D01*
X0157663Y0218125D01*
X0157802Y0218140D01*
X0157941Y0218151D01*
X0158081Y0218158D01*
X0158221Y0218161D01*
X0158361Y0218160D01*
X0158501Y0218155D01*
X0158640Y0218146D01*
X0158780Y0218133D01*
X0158919Y0218116D01*
X0159057Y0218095D01*
X0159195Y0218071D01*
X0159332Y0218042D01*
X0159468Y0218010D01*
X0159603Y0217973D01*
X0159737Y0217933D01*
X0159870Y0217889D01*
X0160001Y0217841D01*
X0160131Y0217790D01*
X0160260Y0217735D01*
X0160387Y0217676D01*
X0160512Y0217613D01*
X0160635Y0217548D01*
X0160757Y0217478D01*
X0160876Y0217405D01*
X0160994Y0217329D01*
X0161109Y0217250D01*
X0161222Y0217167D01*
X0161332Y0217081D01*
X0161440Y0216992D01*
X0161545Y0216900D01*
X0161648Y0216805D01*
X0161748Y0216707D01*
X0161845Y0216607D01*
X0161939Y0216503D01*
X0162031Y0216397D01*
X0162119Y0216289D01*
X0162204Y0216178D01*
X0162286Y0216064D01*
X0162365Y0215948D01*
X0162440Y0215831D01*
X0162512Y0215711D01*
X0162580Y0215589D01*
X0162645Y0215465D01*
X0162707Y0215339D01*
X0162765Y0215212D01*
X0162819Y0215083D01*
X0162870Y0214952D01*
X0162916Y0214820D01*
X0162959Y0214687D01*
X0162999Y0214553D01*
X0163034Y0214418D01*
X0163066Y0214281D01*
X0163093Y0214144D01*
X0163117Y0214006D01*
X0163137Y0213868D01*
X0163153Y0213729D01*
X0163165Y0213589D01*
X0163173Y0213450D01*
X0163177Y0213310D01*
X0163177Y0213170D01*
X0163173Y0213030D01*
X0163165Y0212891D01*
X0163153Y0212751D01*
X0163137Y0212612D01*
X0163117Y0212474D01*
X0163093Y0212336D01*
X0163066Y0212199D01*
X0163034Y0212062D01*
X0162999Y0211927D01*
X0162959Y0211793D01*
X0162916Y0211660D01*
X0162870Y0211528D01*
X0162819Y0211397D01*
X0162765Y0211268D01*
X0162707Y0211141D01*
X0162645Y0211015D01*
X0162580Y0210891D01*
X0162512Y0210769D01*
X0162440Y0210649D01*
X0162365Y0210532D01*
X0162286Y0210416D01*
X0162204Y0210302D01*
X0162119Y0210191D01*
X0162031Y0210083D01*
X0161939Y0209977D01*
X0161845Y0209873D01*
X0161748Y0209773D01*
X0161648Y0209675D01*
X0161545Y0209580D01*
X0161440Y0209488D01*
X0161332Y0209399D01*
X0161222Y0209313D01*
X0161109Y0209230D01*
X0160994Y0209151D01*
X0160876Y0209075D01*
X0160757Y0209002D01*
X0160635Y0208932D01*
X0160512Y0208867D01*
X0160387Y0208804D01*
X0160260Y0208745D01*
X0160131Y0208690D01*
X0160001Y0208639D01*
X0159870Y0208591D01*
X0159737Y0208547D01*
X0159603Y0208507D01*
X0159468Y0208470D01*
X0159332Y0208438D01*
X0159195Y0208409D01*
X0159057Y0208385D01*
X0158919Y0208364D01*
X0158780Y0208347D01*
X0158640Y0208334D01*
X0158501Y0208325D01*
X0158361Y0208320D01*
X0158221Y0208319D01*
X0158081Y0208322D01*
X0157941Y0208329D01*
X0157802Y0208340D01*
X0157663Y0208355D01*
X0157524Y0208374D01*
X0157386Y0208396D01*
X0157249Y0208423D01*
X0157112Y0208454D01*
X0156977Y0208488D01*
X0156842Y0208526D01*
X0156709Y0208569D01*
X0156577Y0208614D01*
X0156446Y0208664D01*
X0156316Y0208717D01*
X0156189Y0208774D01*
X0156063Y0208835D01*
X0155938Y0208899D01*
X0155816Y0208967D01*
X0155695Y0209038D01*
X0155577Y0209112D01*
X0155461Y0209190D01*
X0155347Y0209271D01*
X0155235Y0209356D01*
X0155126Y0209443D01*
X0155019Y0209533D01*
X0154915Y0209627D01*
X0154814Y0209723D01*
X0154715Y0209823D01*
X0154619Y0209925D01*
X0154527Y0210029D01*
X0154437Y0210137D01*
X0154350Y0210247D01*
X0154267Y0210359D01*
X0154186Y0210473D01*
X0154109Y0210590D01*
X0154036Y0210709D01*
X0153965Y0210830D01*
X0153899Y0210953D01*
X0153835Y0211078D01*
X0153776Y0211204D01*
X0153720Y0211333D01*
X0153667Y0211462D01*
X0153619Y0211593D01*
X0153574Y0211726D01*
X0153533Y0211860D01*
X0153495Y0211995D01*
X0153462Y0212130D01*
X0153432Y0212267D01*
X0153406Y0212405D01*
X0153385Y0212543D01*
X0153367Y0212682D01*
X0153353Y0212821D01*
X0153343Y0212960D01*
X0153337Y0213100D01*
X0153335Y0213240D01*
M02*
