G75*
%MOIN*%
%OFA0B0*%
%FSLAX25Y25*%
%IPPOS*%
%LPD*%
%AMOC8*
5,1,8,0,0,1.08239X$1,22.5*
%
%ADD10C,0.00000*%
%ADD11OC8,0.05200*%
%ADD12R,0.07087X0.07087*%
%ADD13C,0.07087*%
%ADD14C,0.07874*%
%ADD15C,0.06000*%
%ADD16C,0.06600*%
%ADD17OC8,0.06496*%
%ADD18C,0.04500*%
%ADD19C,0.02400*%
%ADD20C,0.01200*%
%ADD21C,0.01600*%
%ADD22OC8,0.03962*%
D10*
X0037456Y0031440D02*
X0037456Y0222771D01*
X0170178Y0222771D01*
X0170178Y0031440D01*
X0037456Y0031440D01*
X0040735Y0066440D02*
X0040737Y0066580D01*
X0040743Y0066720D01*
X0040753Y0066859D01*
X0040767Y0066998D01*
X0040785Y0067137D01*
X0040806Y0067275D01*
X0040832Y0067413D01*
X0040862Y0067550D01*
X0040895Y0067685D01*
X0040933Y0067820D01*
X0040974Y0067954D01*
X0041019Y0068087D01*
X0041067Y0068218D01*
X0041120Y0068347D01*
X0041176Y0068476D01*
X0041235Y0068602D01*
X0041299Y0068727D01*
X0041365Y0068850D01*
X0041436Y0068971D01*
X0041509Y0069090D01*
X0041586Y0069207D01*
X0041667Y0069321D01*
X0041750Y0069433D01*
X0041837Y0069543D01*
X0041927Y0069651D01*
X0042019Y0069755D01*
X0042115Y0069857D01*
X0042214Y0069957D01*
X0042315Y0070053D01*
X0042419Y0070147D01*
X0042526Y0070237D01*
X0042635Y0070324D01*
X0042747Y0070409D01*
X0042861Y0070490D01*
X0042977Y0070568D01*
X0043095Y0070642D01*
X0043216Y0070713D01*
X0043338Y0070781D01*
X0043463Y0070845D01*
X0043589Y0070906D01*
X0043716Y0070963D01*
X0043846Y0071016D01*
X0043977Y0071066D01*
X0044109Y0071111D01*
X0044242Y0071154D01*
X0044377Y0071192D01*
X0044512Y0071226D01*
X0044649Y0071257D01*
X0044786Y0071284D01*
X0044924Y0071306D01*
X0045063Y0071325D01*
X0045202Y0071340D01*
X0045341Y0071351D01*
X0045481Y0071358D01*
X0045621Y0071361D01*
X0045761Y0071360D01*
X0045901Y0071355D01*
X0046040Y0071346D01*
X0046180Y0071333D01*
X0046319Y0071316D01*
X0046457Y0071295D01*
X0046595Y0071271D01*
X0046732Y0071242D01*
X0046868Y0071210D01*
X0047003Y0071173D01*
X0047137Y0071133D01*
X0047270Y0071089D01*
X0047401Y0071041D01*
X0047531Y0070990D01*
X0047660Y0070935D01*
X0047787Y0070876D01*
X0047912Y0070813D01*
X0048035Y0070748D01*
X0048157Y0070678D01*
X0048276Y0070605D01*
X0048394Y0070529D01*
X0048509Y0070450D01*
X0048622Y0070367D01*
X0048732Y0070281D01*
X0048840Y0070192D01*
X0048945Y0070100D01*
X0049048Y0070005D01*
X0049148Y0069907D01*
X0049245Y0069807D01*
X0049339Y0069703D01*
X0049431Y0069597D01*
X0049519Y0069489D01*
X0049604Y0069378D01*
X0049686Y0069264D01*
X0049765Y0069148D01*
X0049840Y0069031D01*
X0049912Y0068911D01*
X0049980Y0068789D01*
X0050045Y0068665D01*
X0050107Y0068539D01*
X0050165Y0068412D01*
X0050219Y0068283D01*
X0050270Y0068152D01*
X0050316Y0068020D01*
X0050359Y0067887D01*
X0050399Y0067753D01*
X0050434Y0067618D01*
X0050466Y0067481D01*
X0050493Y0067344D01*
X0050517Y0067206D01*
X0050537Y0067068D01*
X0050553Y0066929D01*
X0050565Y0066789D01*
X0050573Y0066650D01*
X0050577Y0066510D01*
X0050577Y0066370D01*
X0050573Y0066230D01*
X0050565Y0066091D01*
X0050553Y0065951D01*
X0050537Y0065812D01*
X0050517Y0065674D01*
X0050493Y0065536D01*
X0050466Y0065399D01*
X0050434Y0065262D01*
X0050399Y0065127D01*
X0050359Y0064993D01*
X0050316Y0064860D01*
X0050270Y0064728D01*
X0050219Y0064597D01*
X0050165Y0064468D01*
X0050107Y0064341D01*
X0050045Y0064215D01*
X0049980Y0064091D01*
X0049912Y0063969D01*
X0049840Y0063849D01*
X0049765Y0063732D01*
X0049686Y0063616D01*
X0049604Y0063502D01*
X0049519Y0063391D01*
X0049431Y0063283D01*
X0049339Y0063177D01*
X0049245Y0063073D01*
X0049148Y0062973D01*
X0049048Y0062875D01*
X0048945Y0062780D01*
X0048840Y0062688D01*
X0048732Y0062599D01*
X0048622Y0062513D01*
X0048509Y0062430D01*
X0048394Y0062351D01*
X0048276Y0062275D01*
X0048157Y0062202D01*
X0048035Y0062132D01*
X0047912Y0062067D01*
X0047787Y0062004D01*
X0047660Y0061945D01*
X0047531Y0061890D01*
X0047401Y0061839D01*
X0047270Y0061791D01*
X0047137Y0061747D01*
X0047003Y0061707D01*
X0046868Y0061670D01*
X0046732Y0061638D01*
X0046595Y0061609D01*
X0046457Y0061585D01*
X0046319Y0061564D01*
X0046180Y0061547D01*
X0046040Y0061534D01*
X0045901Y0061525D01*
X0045761Y0061520D01*
X0045621Y0061519D01*
X0045481Y0061522D01*
X0045341Y0061529D01*
X0045202Y0061540D01*
X0045063Y0061555D01*
X0044924Y0061574D01*
X0044786Y0061596D01*
X0044649Y0061623D01*
X0044512Y0061654D01*
X0044377Y0061688D01*
X0044242Y0061726D01*
X0044109Y0061769D01*
X0043977Y0061814D01*
X0043846Y0061864D01*
X0043716Y0061917D01*
X0043589Y0061974D01*
X0043463Y0062035D01*
X0043338Y0062099D01*
X0043216Y0062167D01*
X0043095Y0062238D01*
X0042977Y0062312D01*
X0042861Y0062390D01*
X0042747Y0062471D01*
X0042635Y0062556D01*
X0042526Y0062643D01*
X0042419Y0062733D01*
X0042315Y0062827D01*
X0042214Y0062923D01*
X0042115Y0063023D01*
X0042019Y0063125D01*
X0041927Y0063229D01*
X0041837Y0063337D01*
X0041750Y0063447D01*
X0041667Y0063559D01*
X0041586Y0063673D01*
X0041509Y0063790D01*
X0041436Y0063909D01*
X0041365Y0064030D01*
X0041299Y0064153D01*
X0041235Y0064278D01*
X0041176Y0064404D01*
X0041120Y0064533D01*
X0041067Y0064662D01*
X0041019Y0064793D01*
X0040974Y0064926D01*
X0040933Y0065060D01*
X0040895Y0065195D01*
X0040862Y0065330D01*
X0040832Y0065467D01*
X0040806Y0065605D01*
X0040785Y0065743D01*
X0040767Y0065882D01*
X0040753Y0066021D01*
X0040743Y0066160D01*
X0040737Y0066300D01*
X0040735Y0066440D01*
X0043335Y0214040D02*
X0043337Y0214180D01*
X0043343Y0214320D01*
X0043353Y0214459D01*
X0043367Y0214598D01*
X0043385Y0214737D01*
X0043406Y0214875D01*
X0043432Y0215013D01*
X0043462Y0215150D01*
X0043495Y0215285D01*
X0043533Y0215420D01*
X0043574Y0215554D01*
X0043619Y0215687D01*
X0043667Y0215818D01*
X0043720Y0215947D01*
X0043776Y0216076D01*
X0043835Y0216202D01*
X0043899Y0216327D01*
X0043965Y0216450D01*
X0044036Y0216571D01*
X0044109Y0216690D01*
X0044186Y0216807D01*
X0044267Y0216921D01*
X0044350Y0217033D01*
X0044437Y0217143D01*
X0044527Y0217251D01*
X0044619Y0217355D01*
X0044715Y0217457D01*
X0044814Y0217557D01*
X0044915Y0217653D01*
X0045019Y0217747D01*
X0045126Y0217837D01*
X0045235Y0217924D01*
X0045347Y0218009D01*
X0045461Y0218090D01*
X0045577Y0218168D01*
X0045695Y0218242D01*
X0045816Y0218313D01*
X0045938Y0218381D01*
X0046063Y0218445D01*
X0046189Y0218506D01*
X0046316Y0218563D01*
X0046446Y0218616D01*
X0046577Y0218666D01*
X0046709Y0218711D01*
X0046842Y0218754D01*
X0046977Y0218792D01*
X0047112Y0218826D01*
X0047249Y0218857D01*
X0047386Y0218884D01*
X0047524Y0218906D01*
X0047663Y0218925D01*
X0047802Y0218940D01*
X0047941Y0218951D01*
X0048081Y0218958D01*
X0048221Y0218961D01*
X0048361Y0218960D01*
X0048501Y0218955D01*
X0048640Y0218946D01*
X0048780Y0218933D01*
X0048919Y0218916D01*
X0049057Y0218895D01*
X0049195Y0218871D01*
X0049332Y0218842D01*
X0049468Y0218810D01*
X0049603Y0218773D01*
X0049737Y0218733D01*
X0049870Y0218689D01*
X0050001Y0218641D01*
X0050131Y0218590D01*
X0050260Y0218535D01*
X0050387Y0218476D01*
X0050512Y0218413D01*
X0050635Y0218348D01*
X0050757Y0218278D01*
X0050876Y0218205D01*
X0050994Y0218129D01*
X0051109Y0218050D01*
X0051222Y0217967D01*
X0051332Y0217881D01*
X0051440Y0217792D01*
X0051545Y0217700D01*
X0051648Y0217605D01*
X0051748Y0217507D01*
X0051845Y0217407D01*
X0051939Y0217303D01*
X0052031Y0217197D01*
X0052119Y0217089D01*
X0052204Y0216978D01*
X0052286Y0216864D01*
X0052365Y0216748D01*
X0052440Y0216631D01*
X0052512Y0216511D01*
X0052580Y0216389D01*
X0052645Y0216265D01*
X0052707Y0216139D01*
X0052765Y0216012D01*
X0052819Y0215883D01*
X0052870Y0215752D01*
X0052916Y0215620D01*
X0052959Y0215487D01*
X0052999Y0215353D01*
X0053034Y0215218D01*
X0053066Y0215081D01*
X0053093Y0214944D01*
X0053117Y0214806D01*
X0053137Y0214668D01*
X0053153Y0214529D01*
X0053165Y0214389D01*
X0053173Y0214250D01*
X0053177Y0214110D01*
X0053177Y0213970D01*
X0053173Y0213830D01*
X0053165Y0213691D01*
X0053153Y0213551D01*
X0053137Y0213412D01*
X0053117Y0213274D01*
X0053093Y0213136D01*
X0053066Y0212999D01*
X0053034Y0212862D01*
X0052999Y0212727D01*
X0052959Y0212593D01*
X0052916Y0212460D01*
X0052870Y0212328D01*
X0052819Y0212197D01*
X0052765Y0212068D01*
X0052707Y0211941D01*
X0052645Y0211815D01*
X0052580Y0211691D01*
X0052512Y0211569D01*
X0052440Y0211449D01*
X0052365Y0211332D01*
X0052286Y0211216D01*
X0052204Y0211102D01*
X0052119Y0210991D01*
X0052031Y0210883D01*
X0051939Y0210777D01*
X0051845Y0210673D01*
X0051748Y0210573D01*
X0051648Y0210475D01*
X0051545Y0210380D01*
X0051440Y0210288D01*
X0051332Y0210199D01*
X0051222Y0210113D01*
X0051109Y0210030D01*
X0050994Y0209951D01*
X0050876Y0209875D01*
X0050757Y0209802D01*
X0050635Y0209732D01*
X0050512Y0209667D01*
X0050387Y0209604D01*
X0050260Y0209545D01*
X0050131Y0209490D01*
X0050001Y0209439D01*
X0049870Y0209391D01*
X0049737Y0209347D01*
X0049603Y0209307D01*
X0049468Y0209270D01*
X0049332Y0209238D01*
X0049195Y0209209D01*
X0049057Y0209185D01*
X0048919Y0209164D01*
X0048780Y0209147D01*
X0048640Y0209134D01*
X0048501Y0209125D01*
X0048361Y0209120D01*
X0048221Y0209119D01*
X0048081Y0209122D01*
X0047941Y0209129D01*
X0047802Y0209140D01*
X0047663Y0209155D01*
X0047524Y0209174D01*
X0047386Y0209196D01*
X0047249Y0209223D01*
X0047112Y0209254D01*
X0046977Y0209288D01*
X0046842Y0209326D01*
X0046709Y0209369D01*
X0046577Y0209414D01*
X0046446Y0209464D01*
X0046316Y0209517D01*
X0046189Y0209574D01*
X0046063Y0209635D01*
X0045938Y0209699D01*
X0045816Y0209767D01*
X0045695Y0209838D01*
X0045577Y0209912D01*
X0045461Y0209990D01*
X0045347Y0210071D01*
X0045235Y0210156D01*
X0045126Y0210243D01*
X0045019Y0210333D01*
X0044915Y0210427D01*
X0044814Y0210523D01*
X0044715Y0210623D01*
X0044619Y0210725D01*
X0044527Y0210829D01*
X0044437Y0210937D01*
X0044350Y0211047D01*
X0044267Y0211159D01*
X0044186Y0211273D01*
X0044109Y0211390D01*
X0044036Y0211509D01*
X0043965Y0211630D01*
X0043899Y0211753D01*
X0043835Y0211878D01*
X0043776Y0212004D01*
X0043720Y0212133D01*
X0043667Y0212262D01*
X0043619Y0212393D01*
X0043574Y0212526D01*
X0043533Y0212660D01*
X0043495Y0212795D01*
X0043462Y0212930D01*
X0043432Y0213067D01*
X0043406Y0213205D01*
X0043385Y0213343D01*
X0043367Y0213482D01*
X0043353Y0213621D01*
X0043343Y0213760D01*
X0043337Y0213900D01*
X0043335Y0214040D01*
X0153335Y0213240D02*
X0153337Y0213380D01*
X0153343Y0213520D01*
X0153353Y0213659D01*
X0153367Y0213798D01*
X0153385Y0213937D01*
X0153406Y0214075D01*
X0153432Y0214213D01*
X0153462Y0214350D01*
X0153495Y0214485D01*
X0153533Y0214620D01*
X0153574Y0214754D01*
X0153619Y0214887D01*
X0153667Y0215018D01*
X0153720Y0215147D01*
X0153776Y0215276D01*
X0153835Y0215402D01*
X0153899Y0215527D01*
X0153965Y0215650D01*
X0154036Y0215771D01*
X0154109Y0215890D01*
X0154186Y0216007D01*
X0154267Y0216121D01*
X0154350Y0216233D01*
X0154437Y0216343D01*
X0154527Y0216451D01*
X0154619Y0216555D01*
X0154715Y0216657D01*
X0154814Y0216757D01*
X0154915Y0216853D01*
X0155019Y0216947D01*
X0155126Y0217037D01*
X0155235Y0217124D01*
X0155347Y0217209D01*
X0155461Y0217290D01*
X0155577Y0217368D01*
X0155695Y0217442D01*
X0155816Y0217513D01*
X0155938Y0217581D01*
X0156063Y0217645D01*
X0156189Y0217706D01*
X0156316Y0217763D01*
X0156446Y0217816D01*
X0156577Y0217866D01*
X0156709Y0217911D01*
X0156842Y0217954D01*
X0156977Y0217992D01*
X0157112Y0218026D01*
X0157249Y0218057D01*
X0157386Y0218084D01*
X0157524Y0218106D01*
X0157663Y0218125D01*
X0157802Y0218140D01*
X0157941Y0218151D01*
X0158081Y0218158D01*
X0158221Y0218161D01*
X0158361Y0218160D01*
X0158501Y0218155D01*
X0158640Y0218146D01*
X0158780Y0218133D01*
X0158919Y0218116D01*
X0159057Y0218095D01*
X0159195Y0218071D01*
X0159332Y0218042D01*
X0159468Y0218010D01*
X0159603Y0217973D01*
X0159737Y0217933D01*
X0159870Y0217889D01*
X0160001Y0217841D01*
X0160131Y0217790D01*
X0160260Y0217735D01*
X0160387Y0217676D01*
X0160512Y0217613D01*
X0160635Y0217548D01*
X0160757Y0217478D01*
X0160876Y0217405D01*
X0160994Y0217329D01*
X0161109Y0217250D01*
X0161222Y0217167D01*
X0161332Y0217081D01*
X0161440Y0216992D01*
X0161545Y0216900D01*
X0161648Y0216805D01*
X0161748Y0216707D01*
X0161845Y0216607D01*
X0161939Y0216503D01*
X0162031Y0216397D01*
X0162119Y0216289D01*
X0162204Y0216178D01*
X0162286Y0216064D01*
X0162365Y0215948D01*
X0162440Y0215831D01*
X0162512Y0215711D01*
X0162580Y0215589D01*
X0162645Y0215465D01*
X0162707Y0215339D01*
X0162765Y0215212D01*
X0162819Y0215083D01*
X0162870Y0214952D01*
X0162916Y0214820D01*
X0162959Y0214687D01*
X0162999Y0214553D01*
X0163034Y0214418D01*
X0163066Y0214281D01*
X0163093Y0214144D01*
X0163117Y0214006D01*
X0163137Y0213868D01*
X0163153Y0213729D01*
X0163165Y0213589D01*
X0163173Y0213450D01*
X0163177Y0213310D01*
X0163177Y0213170D01*
X0163173Y0213030D01*
X0163165Y0212891D01*
X0163153Y0212751D01*
X0163137Y0212612D01*
X0163117Y0212474D01*
X0163093Y0212336D01*
X0163066Y0212199D01*
X0163034Y0212062D01*
X0162999Y0211927D01*
X0162959Y0211793D01*
X0162916Y0211660D01*
X0162870Y0211528D01*
X0162819Y0211397D01*
X0162765Y0211268D01*
X0162707Y0211141D01*
X0162645Y0211015D01*
X0162580Y0210891D01*
X0162512Y0210769D01*
X0162440Y0210649D01*
X0162365Y0210532D01*
X0162286Y0210416D01*
X0162204Y0210302D01*
X0162119Y0210191D01*
X0162031Y0210083D01*
X0161939Y0209977D01*
X0161845Y0209873D01*
X0161748Y0209773D01*
X0161648Y0209675D01*
X0161545Y0209580D01*
X0161440Y0209488D01*
X0161332Y0209399D01*
X0161222Y0209313D01*
X0161109Y0209230D01*
X0160994Y0209151D01*
X0160876Y0209075D01*
X0160757Y0209002D01*
X0160635Y0208932D01*
X0160512Y0208867D01*
X0160387Y0208804D01*
X0160260Y0208745D01*
X0160131Y0208690D01*
X0160001Y0208639D01*
X0159870Y0208591D01*
X0159737Y0208547D01*
X0159603Y0208507D01*
X0159468Y0208470D01*
X0159332Y0208438D01*
X0159195Y0208409D01*
X0159057Y0208385D01*
X0158919Y0208364D01*
X0158780Y0208347D01*
X0158640Y0208334D01*
X0158501Y0208325D01*
X0158361Y0208320D01*
X0158221Y0208319D01*
X0158081Y0208322D01*
X0157941Y0208329D01*
X0157802Y0208340D01*
X0157663Y0208355D01*
X0157524Y0208374D01*
X0157386Y0208396D01*
X0157249Y0208423D01*
X0157112Y0208454D01*
X0156977Y0208488D01*
X0156842Y0208526D01*
X0156709Y0208569D01*
X0156577Y0208614D01*
X0156446Y0208664D01*
X0156316Y0208717D01*
X0156189Y0208774D01*
X0156063Y0208835D01*
X0155938Y0208899D01*
X0155816Y0208967D01*
X0155695Y0209038D01*
X0155577Y0209112D01*
X0155461Y0209190D01*
X0155347Y0209271D01*
X0155235Y0209356D01*
X0155126Y0209443D01*
X0155019Y0209533D01*
X0154915Y0209627D01*
X0154814Y0209723D01*
X0154715Y0209823D01*
X0154619Y0209925D01*
X0154527Y0210029D01*
X0154437Y0210137D01*
X0154350Y0210247D01*
X0154267Y0210359D01*
X0154186Y0210473D01*
X0154109Y0210590D01*
X0154036Y0210709D01*
X0153965Y0210830D01*
X0153899Y0210953D01*
X0153835Y0211078D01*
X0153776Y0211204D01*
X0153720Y0211333D01*
X0153667Y0211462D01*
X0153619Y0211593D01*
X0153574Y0211726D01*
X0153533Y0211860D01*
X0153495Y0211995D01*
X0153462Y0212130D01*
X0153432Y0212267D01*
X0153406Y0212405D01*
X0153385Y0212543D01*
X0153367Y0212682D01*
X0153353Y0212821D01*
X0153343Y0212960D01*
X0153337Y0213100D01*
X0153335Y0213240D01*
D11*
X0082856Y0187240D03*
X0082856Y0147240D03*
X0087056Y0101040D03*
X0087056Y0061040D03*
D12*
X0100656Y0186640D03*
D13*
X0100656Y0176640D03*
X0100656Y0166640D03*
X0100656Y0156640D03*
X0100656Y0146640D03*
X0100656Y0136640D03*
X0100656Y0126640D03*
X0100656Y0116640D03*
X0100656Y0106640D03*
X0100656Y0096640D03*
X0100656Y0086640D03*
X0100656Y0076640D03*
X0100656Y0066640D03*
X0100656Y0056640D03*
X0100656Y0046640D03*
X0160656Y0046640D03*
X0160656Y0056640D03*
X0160656Y0066640D03*
X0160656Y0076640D03*
X0160656Y0086640D03*
X0160656Y0096640D03*
X0160656Y0106640D03*
X0160656Y0116640D03*
X0160656Y0126640D03*
X0160656Y0136640D03*
X0160656Y0146640D03*
X0160656Y0156640D03*
X0160656Y0166640D03*
X0160656Y0176640D03*
X0160656Y0186640D03*
D14*
X0053955Y0163123D03*
X0053955Y0143123D03*
X0053558Y0110157D03*
X0053558Y0090157D03*
D15*
X0062456Y0048640D02*
X0062456Y0042640D01*
X0072456Y0042640D02*
X0072456Y0048640D01*
X0082456Y0048640D02*
X0082456Y0042640D01*
D16*
X0076056Y0060040D03*
X0076056Y0100040D03*
X0088056Y0195440D03*
X0048056Y0195440D03*
D17*
X0073256Y0213440D03*
X0083256Y0213440D03*
X0093256Y0213440D03*
X0103256Y0213440D03*
X0113256Y0213440D03*
X0123256Y0213440D03*
X0133256Y0213440D03*
D18*
X0081306Y0136440D02*
X0076806Y0136440D01*
X0076806Y0126440D02*
X0081306Y0126440D01*
X0081306Y0116440D02*
X0076806Y0116440D01*
D19*
X0053955Y0163123D02*
X0047856Y0168822D01*
X0048056Y0195440D01*
X0051056Y0204240D01*
X0091456Y0204240D01*
X0093256Y0206040D01*
X0093256Y0213440D01*
D20*
X0113256Y0213440D02*
X0113256Y0139240D01*
X0100656Y0126640D01*
X0092056Y0123840D02*
X0084656Y0116440D01*
X0079056Y0116440D01*
X0079056Y0126440D02*
X0086856Y0126440D01*
X0088456Y0128040D01*
X0088456Y0181640D01*
X0082856Y0187240D01*
X0094456Y0146640D02*
X0092056Y0144240D01*
X0092056Y0123840D01*
X0094456Y0146640D02*
X0100656Y0146640D01*
X0123256Y0136640D02*
X0123256Y0213440D01*
D21*
X0127711Y0210474D02*
X0129084Y0210474D01*
X0128398Y0211160D02*
X0131165Y0208392D01*
X0132974Y0208392D01*
X0132974Y0213158D01*
X0133539Y0213158D01*
X0133539Y0213723D01*
X0138304Y0213723D01*
X0138304Y0215531D01*
X0135865Y0217971D01*
X0149694Y0217971D01*
X0148535Y0215174D01*
X0148535Y0211307D01*
X0150015Y0207734D01*
X0152750Y0204999D01*
X0156323Y0203519D01*
X0160190Y0203519D01*
X0163763Y0204999D01*
X0165378Y0206614D01*
X0165378Y0189728D01*
X0165356Y0189780D01*
X0163796Y0191340D01*
X0161759Y0192184D01*
X0159554Y0192184D01*
X0157516Y0191340D01*
X0155957Y0189780D01*
X0155113Y0187743D01*
X0155113Y0185538D01*
X0155957Y0183500D01*
X0157516Y0181941D01*
X0158495Y0181536D01*
X0157856Y0181210D01*
X0157175Y0180716D01*
X0156581Y0180121D01*
X0156086Y0179441D01*
X0155705Y0178692D01*
X0155445Y0177892D01*
X0155313Y0177061D01*
X0155313Y0176726D01*
X0160570Y0176726D01*
X0160570Y0176555D01*
X0155313Y0176555D01*
X0155313Y0176220D01*
X0155445Y0175389D01*
X0155705Y0174589D01*
X0156086Y0173840D01*
X0156581Y0173159D01*
X0157175Y0172565D01*
X0157856Y0172070D01*
X0158495Y0171745D01*
X0157516Y0171340D01*
X0155957Y0169780D01*
X0155113Y0167743D01*
X0155113Y0165538D01*
X0155957Y0163500D01*
X0157516Y0161941D01*
X0158242Y0161640D01*
X0157516Y0161340D01*
X0155957Y0159780D01*
X0155113Y0157743D01*
X0155113Y0155538D01*
X0155957Y0153500D01*
X0157516Y0151941D01*
X0158242Y0151640D01*
X0157516Y0151340D01*
X0155957Y0149780D01*
X0155113Y0147743D01*
X0155113Y0145538D01*
X0155957Y0143500D01*
X0157516Y0141941D01*
X0158242Y0141640D01*
X0157516Y0141340D01*
X0155957Y0139780D01*
X0155113Y0137743D01*
X0155113Y0135538D01*
X0155957Y0133500D01*
X0157516Y0131941D01*
X0158242Y0131640D01*
X0157516Y0131340D01*
X0155957Y0129780D01*
X0155113Y0127743D01*
X0155113Y0125538D01*
X0155957Y0123500D01*
X0157516Y0121941D01*
X0158242Y0121640D01*
X0157516Y0121340D01*
X0155957Y0119780D01*
X0155113Y0117743D01*
X0155113Y0115538D01*
X0155957Y0113500D01*
X0157516Y0111941D01*
X0158242Y0111640D01*
X0157516Y0111340D01*
X0155957Y0109780D01*
X0155113Y0107743D01*
X0155113Y0105538D01*
X0155957Y0103500D01*
X0157516Y0101941D01*
X0158242Y0101640D01*
X0157516Y0101340D01*
X0155957Y0099780D01*
X0155113Y0097743D01*
X0155113Y0095538D01*
X0155957Y0093500D01*
X0157516Y0091941D01*
X0158242Y0091640D01*
X0157516Y0091340D01*
X0155957Y0089780D01*
X0155113Y0087743D01*
X0155113Y0085538D01*
X0155957Y0083500D01*
X0157516Y0081941D01*
X0158242Y0081640D01*
X0157516Y0081340D01*
X0155957Y0079780D01*
X0155113Y0077743D01*
X0155113Y0075538D01*
X0155957Y0073500D01*
X0157516Y0071941D01*
X0158242Y0071640D01*
X0157516Y0071340D01*
X0155957Y0069780D01*
X0155113Y0067743D01*
X0155113Y0065538D01*
X0155957Y0063500D01*
X0157516Y0061941D01*
X0158242Y0061640D01*
X0157516Y0061340D01*
X0155957Y0059780D01*
X0155113Y0057743D01*
X0155113Y0055538D01*
X0155957Y0053500D01*
X0157516Y0051941D01*
X0158242Y0051640D01*
X0157516Y0051340D01*
X0155957Y0049780D01*
X0155113Y0047743D01*
X0155113Y0045538D01*
X0155957Y0043500D01*
X0157516Y0041941D01*
X0159554Y0041097D01*
X0161759Y0041097D01*
X0163796Y0041941D01*
X0165356Y0043500D01*
X0165378Y0043553D01*
X0165378Y0036240D01*
X0042256Y0036240D01*
X0042256Y0057327D01*
X0043723Y0056719D01*
X0047590Y0056719D01*
X0051163Y0058199D01*
X0053898Y0060934D01*
X0055378Y0064507D01*
X0055378Y0068374D01*
X0053898Y0071947D01*
X0051163Y0074682D01*
X0047590Y0076162D01*
X0043723Y0076162D01*
X0042256Y0075554D01*
X0042256Y0206292D01*
X0042750Y0205799D01*
X0046323Y0204319D01*
X0047702Y0204319D01*
X0046397Y0200490D01*
X0045054Y0199934D01*
X0043563Y0198443D01*
X0042756Y0196495D01*
X0042756Y0194386D01*
X0043563Y0192438D01*
X0044824Y0191177D01*
X0044661Y0169414D01*
X0044637Y0169350D01*
X0044656Y0168780D01*
X0044652Y0168209D01*
X0044677Y0168146D01*
X0044680Y0168077D01*
X0044916Y0167558D01*
X0045130Y0167030D01*
X0045178Y0166981D01*
X0045207Y0166918D01*
X0045623Y0166529D01*
X0046023Y0166123D01*
X0046087Y0166096D01*
X0048018Y0164291D01*
X0048018Y0161943D01*
X0048922Y0159760D01*
X0050592Y0158090D01*
X0052774Y0157186D01*
X0055136Y0157186D01*
X0057318Y0158090D01*
X0058988Y0159760D01*
X0059892Y0161943D01*
X0059892Y0164304D01*
X0058988Y0166487D01*
X0057318Y0168157D01*
X0055136Y0169060D01*
X0052774Y0169060D01*
X0052437Y0168921D01*
X0051067Y0170202D01*
X0051224Y0191113D01*
X0052549Y0192438D01*
X0053356Y0194386D01*
X0053356Y0196495D01*
X0052549Y0198443D01*
X0052483Y0198509D01*
X0053346Y0201040D01*
X0092093Y0201040D01*
X0093269Y0201528D01*
X0094169Y0202428D01*
X0095969Y0204228D01*
X0096456Y0205404D01*
X0096456Y0209219D01*
X0098256Y0211019D01*
X0101083Y0208192D01*
X0105430Y0208192D01*
X0108256Y0211019D01*
X0110656Y0208619D01*
X0110656Y0140317D01*
X0106200Y0135861D01*
X0106200Y0137743D01*
X0105356Y0139780D01*
X0103796Y0141340D01*
X0103071Y0141640D01*
X0103796Y0141941D01*
X0105356Y0143500D01*
X0106200Y0145538D01*
X0106200Y0147743D01*
X0105356Y0149780D01*
X0103796Y0151340D01*
X0102818Y0151745D01*
X0103457Y0152070D01*
X0104137Y0152565D01*
X0104732Y0153159D01*
X0105226Y0153840D01*
X0105608Y0154589D01*
X0105868Y0155389D01*
X0106000Y0156220D01*
X0106000Y0156555D01*
X0100742Y0156555D01*
X0100742Y0156726D01*
X0106000Y0156726D01*
X0106000Y0157061D01*
X0105868Y0157892D01*
X0105608Y0158692D01*
X0105226Y0159441D01*
X0104732Y0160121D01*
X0104137Y0160716D01*
X0103457Y0161210D01*
X0102818Y0161536D01*
X0103796Y0161941D01*
X0105356Y0163500D01*
X0106200Y0165538D01*
X0106200Y0167743D01*
X0105356Y0169780D01*
X0103796Y0171340D01*
X0103071Y0171640D01*
X0103796Y0171941D01*
X0105356Y0173500D01*
X0106200Y0175538D01*
X0106200Y0177743D01*
X0105356Y0179780D01*
X0104039Y0181097D01*
X0105028Y0181097D01*
X0106200Y0182269D01*
X0106200Y0191012D01*
X0105028Y0192184D01*
X0096285Y0192184D01*
X0095113Y0191012D01*
X0095113Y0182269D01*
X0096285Y0181097D01*
X0097274Y0181097D01*
X0095957Y0179780D01*
X0095113Y0177743D01*
X0095113Y0175538D01*
X0095957Y0173500D01*
X0097516Y0171941D01*
X0098242Y0171640D01*
X0097516Y0171340D01*
X0095957Y0169780D01*
X0095113Y0167743D01*
X0095113Y0165538D01*
X0095957Y0163500D01*
X0097516Y0161941D01*
X0098495Y0161536D01*
X0097856Y0161210D01*
X0097175Y0160716D01*
X0096581Y0160121D01*
X0096086Y0159441D01*
X0095705Y0158692D01*
X0095445Y0157892D01*
X0095313Y0157061D01*
X0095313Y0156726D01*
X0100570Y0156726D01*
X0100570Y0156555D01*
X0095313Y0156555D01*
X0095313Y0156220D01*
X0095445Y0155389D01*
X0095705Y0154589D01*
X0096086Y0153840D01*
X0096581Y0153159D01*
X0097175Y0152565D01*
X0097856Y0152070D01*
X0098495Y0151745D01*
X0097516Y0151340D01*
X0095957Y0149780D01*
X0095733Y0149240D01*
X0093939Y0149240D01*
X0092984Y0148845D01*
X0091056Y0146917D01*
X0091056Y0182158D01*
X0090661Y0183113D01*
X0087456Y0186317D01*
X0087456Y0189146D01*
X0086080Y0190523D01*
X0087002Y0190140D01*
X0089111Y0190140D01*
X0091059Y0190947D01*
X0092549Y0192438D01*
X0093356Y0194386D01*
X0093356Y0196495D01*
X0092549Y0198443D01*
X0091059Y0199934D01*
X0089111Y0200740D01*
X0087002Y0200740D01*
X0085054Y0199934D01*
X0083563Y0198443D01*
X0082756Y0196495D01*
X0082756Y0194386D01*
X0083563Y0192438D01*
X0084161Y0191840D01*
X0080951Y0191840D01*
X0078256Y0189146D01*
X0078256Y0185335D01*
X0080951Y0182640D01*
X0083779Y0182640D01*
X0085856Y0180563D01*
X0085856Y0150746D01*
X0084762Y0151840D01*
X0080951Y0151840D01*
X0078256Y0149146D01*
X0078256Y0145335D01*
X0080951Y0142640D01*
X0084762Y0142640D01*
X0085856Y0143735D01*
X0085856Y0129117D01*
X0085779Y0129040D01*
X0084717Y0129040D01*
X0083714Y0130043D01*
X0082152Y0130690D01*
X0075961Y0130690D01*
X0074399Y0130043D01*
X0073203Y0128848D01*
X0072556Y0127286D01*
X0072556Y0125595D01*
X0073203Y0124033D01*
X0074399Y0122837D01*
X0075961Y0122190D01*
X0082152Y0122190D01*
X0083714Y0122837D01*
X0084717Y0123840D01*
X0087374Y0123840D01*
X0088329Y0124236D01*
X0089456Y0125363D01*
X0089456Y0124917D01*
X0084148Y0119609D01*
X0083714Y0120043D01*
X0082152Y0120690D01*
X0075961Y0120690D01*
X0074399Y0120043D01*
X0073203Y0118848D01*
X0072556Y0117286D01*
X0072556Y0115595D01*
X0073203Y0114033D01*
X0074399Y0112837D01*
X0075961Y0112190D01*
X0082152Y0112190D01*
X0083714Y0112837D01*
X0084717Y0113840D01*
X0085174Y0113840D01*
X0086129Y0114236D01*
X0094261Y0122368D01*
X0094656Y0123323D01*
X0094656Y0143163D01*
X0095533Y0144040D01*
X0095733Y0144040D01*
X0095957Y0143500D01*
X0097516Y0141941D01*
X0098242Y0141640D01*
X0097516Y0141340D01*
X0095957Y0139780D01*
X0095113Y0137743D01*
X0095113Y0135538D01*
X0095957Y0133500D01*
X0097516Y0131941D01*
X0098242Y0131640D01*
X0097516Y0131340D01*
X0095957Y0129780D01*
X0095113Y0127743D01*
X0095113Y0125538D01*
X0095957Y0123500D01*
X0097516Y0121941D01*
X0098242Y0121640D01*
X0097516Y0121340D01*
X0095957Y0119780D01*
X0095113Y0117743D01*
X0095113Y0115538D01*
X0095957Y0113500D01*
X0097516Y0111941D01*
X0098242Y0111640D01*
X0097516Y0111340D01*
X0095957Y0109780D01*
X0095113Y0107743D01*
X0095113Y0105538D01*
X0095957Y0103500D01*
X0097516Y0101941D01*
X0098242Y0101640D01*
X0097516Y0101340D01*
X0095957Y0099780D01*
X0095113Y0097743D01*
X0095113Y0095538D01*
X0095957Y0093500D01*
X0097516Y0091941D01*
X0098242Y0091640D01*
X0097516Y0091340D01*
X0095957Y0089780D01*
X0095113Y0087743D01*
X0095113Y0085538D01*
X0095957Y0083500D01*
X0097516Y0081941D01*
X0098242Y0081640D01*
X0097516Y0081340D01*
X0095957Y0079780D01*
X0095113Y0077743D01*
X0095113Y0075538D01*
X0095957Y0073500D01*
X0097516Y0071941D01*
X0098242Y0071640D01*
X0097516Y0071340D01*
X0095957Y0069780D01*
X0095113Y0067743D01*
X0095113Y0065538D01*
X0095957Y0063500D01*
X0097516Y0061941D01*
X0098242Y0061640D01*
X0097516Y0061340D01*
X0095957Y0059780D01*
X0095113Y0057743D01*
X0095113Y0055538D01*
X0095957Y0053500D01*
X0097516Y0051941D01*
X0098242Y0051640D01*
X0097516Y0051340D01*
X0095957Y0049780D01*
X0095113Y0047743D01*
X0095113Y0045538D01*
X0095957Y0043500D01*
X0097516Y0041941D01*
X0099554Y0041097D01*
X0101759Y0041097D01*
X0103796Y0041941D01*
X0105356Y0043500D01*
X0106200Y0045538D01*
X0106200Y0047743D01*
X0105356Y0049780D01*
X0103796Y0051340D01*
X0103071Y0051640D01*
X0103796Y0051941D01*
X0105356Y0053500D01*
X0106200Y0055538D01*
X0106200Y0057743D01*
X0105356Y0059780D01*
X0103796Y0061340D01*
X0103071Y0061640D01*
X0103796Y0061941D01*
X0105356Y0063500D01*
X0106200Y0065538D01*
X0106200Y0067743D01*
X0105356Y0069780D01*
X0103796Y0071340D01*
X0103071Y0071640D01*
X0103796Y0071941D01*
X0105356Y0073500D01*
X0106200Y0075538D01*
X0106200Y0077743D01*
X0105356Y0079780D01*
X0103796Y0081340D01*
X0103071Y0081640D01*
X0103796Y0081941D01*
X0105356Y0083500D01*
X0106200Y0085538D01*
X0106200Y0087743D01*
X0105356Y0089780D01*
X0103796Y0091340D01*
X0103071Y0091640D01*
X0103796Y0091941D01*
X0105356Y0093500D01*
X0106200Y0095538D01*
X0106200Y0097743D01*
X0105356Y0099780D01*
X0103796Y0101340D01*
X0103071Y0101640D01*
X0103796Y0101941D01*
X0105356Y0103500D01*
X0106200Y0105538D01*
X0106200Y0107743D01*
X0105356Y0109780D01*
X0103796Y0111340D01*
X0103071Y0111640D01*
X0103796Y0111941D01*
X0105356Y0113500D01*
X0106200Y0115538D01*
X0106200Y0117743D01*
X0105356Y0119780D01*
X0103796Y0121340D01*
X0103071Y0121640D01*
X0103796Y0121941D01*
X0105356Y0123500D01*
X0106200Y0125538D01*
X0106200Y0127743D01*
X0105976Y0128283D01*
X0115461Y0137768D01*
X0115856Y0138723D01*
X0115856Y0208619D01*
X0118256Y0211019D01*
X0120656Y0208619D01*
X0120656Y0139671D01*
X0119275Y0138289D01*
X0119275Y0134991D01*
X0121607Y0132659D01*
X0124905Y0132659D01*
X0127237Y0134991D01*
X0127237Y0138289D01*
X0125856Y0139671D01*
X0125856Y0208619D01*
X0128398Y0211160D01*
X0126113Y0208875D02*
X0130683Y0208875D01*
X0132974Y0208875D02*
X0133539Y0208875D01*
X0133539Y0208392D02*
X0135347Y0208392D01*
X0138304Y0211349D01*
X0138304Y0213158D01*
X0133539Y0213158D01*
X0133539Y0208392D01*
X0133539Y0210474D02*
X0132974Y0210474D01*
X0132974Y0212072D02*
X0133539Y0212072D01*
X0133539Y0213671D02*
X0148535Y0213671D01*
X0148575Y0215269D02*
X0138304Y0215269D01*
X0136968Y0216868D02*
X0149237Y0216868D01*
X0148535Y0212072D02*
X0138304Y0212072D01*
X0137429Y0210474D02*
X0148880Y0210474D01*
X0149542Y0208875D02*
X0135830Y0208875D01*
X0125856Y0207277D02*
X0150472Y0207277D01*
X0152071Y0205678D02*
X0125856Y0205678D01*
X0125856Y0204080D02*
X0154970Y0204080D01*
X0161543Y0204080D02*
X0165378Y0204080D01*
X0165378Y0205678D02*
X0164442Y0205678D01*
X0165378Y0202481D02*
X0125856Y0202481D01*
X0125856Y0200883D02*
X0165378Y0200883D01*
X0165378Y0199284D02*
X0125856Y0199284D01*
X0125856Y0197686D02*
X0165378Y0197686D01*
X0165378Y0196087D02*
X0125856Y0196087D01*
X0125856Y0194489D02*
X0165378Y0194489D01*
X0165378Y0192890D02*
X0125856Y0192890D01*
X0125856Y0191292D02*
X0157468Y0191292D01*
X0155921Y0189693D02*
X0125856Y0189693D01*
X0125856Y0188095D02*
X0155259Y0188095D01*
X0155113Y0186496D02*
X0125856Y0186496D01*
X0125856Y0184898D02*
X0155378Y0184898D01*
X0156158Y0183299D02*
X0125856Y0183299D01*
X0125856Y0181700D02*
X0158097Y0181700D01*
X0156567Y0180102D02*
X0125856Y0180102D01*
X0125856Y0178503D02*
X0155643Y0178503D01*
X0155313Y0176905D02*
X0125856Y0176905D01*
X0125856Y0175306D02*
X0155472Y0175306D01*
X0156182Y0173708D02*
X0125856Y0173708D01*
X0125856Y0172109D02*
X0157802Y0172109D01*
X0156687Y0170511D02*
X0125856Y0170511D01*
X0125856Y0168912D02*
X0155597Y0168912D01*
X0155113Y0167314D02*
X0125856Y0167314D01*
X0125856Y0165715D02*
X0155113Y0165715D01*
X0155702Y0164117D02*
X0125856Y0164117D01*
X0125856Y0162518D02*
X0156939Y0162518D01*
X0157096Y0160920D02*
X0125856Y0160920D01*
X0125856Y0159321D02*
X0155767Y0159321D01*
X0155113Y0157723D02*
X0125856Y0157723D01*
X0125856Y0156124D02*
X0155113Y0156124D01*
X0155532Y0154526D02*
X0125856Y0154526D01*
X0125856Y0152927D02*
X0156530Y0152927D01*
X0157505Y0151329D02*
X0125856Y0151329D01*
X0125856Y0149730D02*
X0155936Y0149730D01*
X0155274Y0148132D02*
X0125856Y0148132D01*
X0125856Y0146533D02*
X0155113Y0146533D01*
X0155363Y0144935D02*
X0125856Y0144935D01*
X0125856Y0143336D02*
X0156121Y0143336D01*
X0158007Y0141738D02*
X0125856Y0141738D01*
X0125856Y0140139D02*
X0156316Y0140139D01*
X0155443Y0138541D02*
X0126986Y0138541D01*
X0127237Y0136942D02*
X0155113Y0136942D01*
X0155193Y0135344D02*
X0127237Y0135344D01*
X0125991Y0133745D02*
X0155856Y0133745D01*
X0157311Y0132147D02*
X0109840Y0132147D01*
X0111438Y0133745D02*
X0120522Y0133745D01*
X0119275Y0135344D02*
X0113037Y0135344D01*
X0114635Y0136942D02*
X0119275Y0136942D01*
X0119527Y0138541D02*
X0115781Y0138541D01*
X0115856Y0140139D02*
X0120656Y0140139D01*
X0120656Y0141738D02*
X0115856Y0141738D01*
X0115856Y0143336D02*
X0120656Y0143336D01*
X0120656Y0144935D02*
X0115856Y0144935D01*
X0115856Y0146533D02*
X0120656Y0146533D01*
X0120656Y0148132D02*
X0115856Y0148132D01*
X0115856Y0149730D02*
X0120656Y0149730D01*
X0120656Y0151329D02*
X0115856Y0151329D01*
X0115856Y0152927D02*
X0120656Y0152927D01*
X0120656Y0154526D02*
X0115856Y0154526D01*
X0115856Y0156124D02*
X0120656Y0156124D01*
X0120656Y0157723D02*
X0115856Y0157723D01*
X0115856Y0159321D02*
X0120656Y0159321D01*
X0120656Y0160920D02*
X0115856Y0160920D01*
X0115856Y0162518D02*
X0120656Y0162518D01*
X0120656Y0164117D02*
X0115856Y0164117D01*
X0115856Y0165715D02*
X0120656Y0165715D01*
X0120656Y0167314D02*
X0115856Y0167314D01*
X0115856Y0168912D02*
X0120656Y0168912D01*
X0120656Y0170511D02*
X0115856Y0170511D01*
X0115856Y0172109D02*
X0120656Y0172109D01*
X0120656Y0173708D02*
X0115856Y0173708D01*
X0115856Y0175306D02*
X0120656Y0175306D01*
X0120656Y0176905D02*
X0115856Y0176905D01*
X0115856Y0178503D02*
X0120656Y0178503D01*
X0120656Y0180102D02*
X0115856Y0180102D01*
X0115856Y0181700D02*
X0120656Y0181700D01*
X0120656Y0183299D02*
X0115856Y0183299D01*
X0115856Y0184898D02*
X0120656Y0184898D01*
X0120656Y0186496D02*
X0115856Y0186496D01*
X0115856Y0188095D02*
X0120656Y0188095D01*
X0120656Y0189693D02*
X0115856Y0189693D01*
X0115856Y0191292D02*
X0120656Y0191292D01*
X0120656Y0192890D02*
X0115856Y0192890D01*
X0115856Y0194489D02*
X0120656Y0194489D01*
X0120656Y0196087D02*
X0115856Y0196087D01*
X0115856Y0197686D02*
X0120656Y0197686D01*
X0120656Y0199284D02*
X0115856Y0199284D01*
X0115856Y0200883D02*
X0120656Y0200883D01*
X0120656Y0202481D02*
X0115856Y0202481D01*
X0115856Y0204080D02*
X0120656Y0204080D01*
X0120656Y0205678D02*
X0115856Y0205678D01*
X0115856Y0207277D02*
X0120656Y0207277D01*
X0120400Y0208875D02*
X0116113Y0208875D01*
X0117711Y0210474D02*
X0118801Y0210474D01*
X0110400Y0208875D02*
X0106113Y0208875D01*
X0107711Y0210474D02*
X0108801Y0210474D01*
X0110656Y0207277D02*
X0096456Y0207277D01*
X0096456Y0208875D02*
X0100400Y0208875D01*
X0098801Y0210474D02*
X0097711Y0210474D01*
X0096456Y0205678D02*
X0110656Y0205678D01*
X0110656Y0204080D02*
X0095821Y0204080D01*
X0094223Y0202481D02*
X0110656Y0202481D01*
X0110656Y0200883D02*
X0053292Y0200883D01*
X0052748Y0199284D02*
X0084405Y0199284D01*
X0083250Y0197686D02*
X0052863Y0197686D01*
X0053356Y0196087D02*
X0082756Y0196087D01*
X0082756Y0194489D02*
X0053356Y0194489D01*
X0052737Y0192890D02*
X0083376Y0192890D01*
X0080402Y0191292D02*
X0051403Y0191292D01*
X0051213Y0189693D02*
X0078804Y0189693D01*
X0078256Y0188095D02*
X0051201Y0188095D01*
X0051189Y0186496D02*
X0078256Y0186496D01*
X0078694Y0184898D02*
X0051177Y0184898D01*
X0051165Y0183299D02*
X0080292Y0183299D01*
X0084719Y0181700D02*
X0051153Y0181700D01*
X0051141Y0180102D02*
X0085856Y0180102D01*
X0085856Y0178503D02*
X0051129Y0178503D01*
X0051117Y0176905D02*
X0085856Y0176905D01*
X0085856Y0175306D02*
X0051105Y0175306D01*
X0051093Y0173708D02*
X0085856Y0173708D01*
X0085856Y0172109D02*
X0051081Y0172109D01*
X0051069Y0170511D02*
X0085856Y0170511D01*
X0085856Y0168912D02*
X0055493Y0168912D01*
X0058161Y0167314D02*
X0085856Y0167314D01*
X0085856Y0165715D02*
X0059307Y0165715D01*
X0059892Y0164117D02*
X0085856Y0164117D01*
X0085856Y0162518D02*
X0059892Y0162518D01*
X0059468Y0160920D02*
X0085856Y0160920D01*
X0085856Y0159321D02*
X0058549Y0159321D01*
X0056431Y0157723D02*
X0085856Y0157723D01*
X0085856Y0156124D02*
X0042256Y0156124D01*
X0042256Y0154526D02*
X0085856Y0154526D01*
X0085856Y0152927D02*
X0042256Y0152927D01*
X0042256Y0151329D02*
X0080439Y0151329D01*
X0078841Y0149730D02*
X0042256Y0149730D01*
X0042256Y0148132D02*
X0051147Y0148132D01*
X0050948Y0148030D02*
X0051753Y0148440D01*
X0052611Y0148719D01*
X0053475Y0148856D01*
X0053475Y0143603D01*
X0053475Y0142644D01*
X0048222Y0142644D01*
X0048359Y0141780D01*
X0048638Y0140921D01*
X0049048Y0140117D01*
X0049579Y0139386D01*
X0050217Y0138748D01*
X0050948Y0138217D01*
X0051753Y0137807D01*
X0052611Y0137528D01*
X0053475Y0137391D01*
X0053475Y0142644D01*
X0054434Y0142644D01*
X0054434Y0137391D01*
X0055298Y0137528D01*
X0056157Y0137807D01*
X0056962Y0138217D01*
X0057692Y0138748D01*
X0058331Y0139386D01*
X0058862Y0140117D01*
X0059271Y0140921D01*
X0059551Y0141780D01*
X0059687Y0142644D01*
X0054434Y0142644D01*
X0054434Y0143603D01*
X0053475Y0143603D01*
X0048222Y0143603D01*
X0048359Y0144467D01*
X0048638Y0145326D01*
X0049048Y0146130D01*
X0049579Y0146861D01*
X0050217Y0147499D01*
X0050948Y0148030D01*
X0049341Y0146533D02*
X0042256Y0146533D01*
X0042256Y0144935D02*
X0048511Y0144935D01*
X0048373Y0141738D02*
X0042256Y0141738D01*
X0042256Y0143336D02*
X0053475Y0143336D01*
X0054434Y0143336D02*
X0080255Y0143336D01*
X0078657Y0144935D02*
X0059399Y0144935D01*
X0059271Y0145326D02*
X0058862Y0146130D01*
X0058331Y0146861D01*
X0057692Y0147499D01*
X0056962Y0148030D01*
X0056157Y0148440D01*
X0055298Y0148719D01*
X0054434Y0148856D01*
X0054434Y0143603D01*
X0059687Y0143603D01*
X0059551Y0144467D01*
X0059271Y0145326D01*
X0058569Y0146533D02*
X0078256Y0146533D01*
X0078256Y0148132D02*
X0056762Y0148132D01*
X0054434Y0148132D02*
X0053475Y0148132D01*
X0053475Y0146533D02*
X0054434Y0146533D01*
X0054434Y0144935D02*
X0053475Y0144935D01*
X0053475Y0141738D02*
X0054434Y0141738D01*
X0054434Y0140139D02*
X0053475Y0140139D01*
X0053475Y0138541D02*
X0054434Y0138541D01*
X0057407Y0138541D02*
X0073339Y0138541D01*
X0073217Y0138359D02*
X0072912Y0137622D01*
X0072756Y0136839D01*
X0072756Y0136440D01*
X0072756Y0136042D01*
X0072912Y0135259D01*
X0073217Y0134522D01*
X0073661Y0133859D01*
X0074225Y0133295D01*
X0074888Y0132851D01*
X0075625Y0132546D01*
X0076407Y0132390D01*
X0079056Y0132390D01*
X0079056Y0136440D01*
X0079056Y0136440D01*
X0072756Y0136440D01*
X0079056Y0136440D01*
X0079056Y0136440D01*
X0079056Y0132390D01*
X0081705Y0132390D01*
X0082488Y0132546D01*
X0083225Y0132851D01*
X0083888Y0133295D01*
X0084452Y0133859D01*
X0084895Y0134522D01*
X0085201Y0135259D01*
X0085356Y0136042D01*
X0085356Y0136440D01*
X0079057Y0136440D01*
X0079057Y0136440D01*
X0085356Y0136440D01*
X0085356Y0136839D01*
X0085201Y0137622D01*
X0084895Y0138359D01*
X0084452Y0139022D01*
X0083888Y0139586D01*
X0083225Y0140029D01*
X0082488Y0140335D01*
X0081705Y0140490D01*
X0079056Y0140490D01*
X0076407Y0140490D01*
X0075625Y0140335D01*
X0074888Y0140029D01*
X0074225Y0139586D01*
X0073661Y0139022D01*
X0073217Y0138359D01*
X0072777Y0136942D02*
X0042256Y0136942D01*
X0042256Y0135344D02*
X0072895Y0135344D01*
X0073774Y0133745D02*
X0042256Y0133745D01*
X0042256Y0132147D02*
X0085856Y0132147D01*
X0085856Y0133745D02*
X0084339Y0133745D01*
X0085218Y0135344D02*
X0085856Y0135344D01*
X0085856Y0136942D02*
X0085336Y0136942D01*
X0085856Y0138541D02*
X0084774Y0138541D01*
X0085856Y0140139D02*
X0082960Y0140139D01*
X0085856Y0141738D02*
X0059537Y0141738D01*
X0058873Y0140139D02*
X0075153Y0140139D01*
X0079056Y0140139D02*
X0079056Y0140139D01*
X0079056Y0140490D02*
X0079056Y0136441D01*
X0079056Y0136441D01*
X0079056Y0140490D01*
X0079056Y0138541D02*
X0079056Y0138541D01*
X0079056Y0136942D02*
X0079056Y0136942D01*
X0079056Y0135344D02*
X0079056Y0135344D01*
X0079056Y0133745D02*
X0079056Y0133745D01*
X0075617Y0130548D02*
X0042256Y0130548D01*
X0042256Y0128950D02*
X0073305Y0128950D01*
X0072583Y0127351D02*
X0042256Y0127351D01*
X0042256Y0125753D02*
X0072556Y0125753D01*
X0073153Y0124154D02*
X0042256Y0124154D01*
X0042256Y0122556D02*
X0075079Y0122556D01*
X0073714Y0119359D02*
X0042256Y0119359D01*
X0042256Y0120957D02*
X0085496Y0120957D01*
X0087095Y0122556D02*
X0083033Y0122556D01*
X0088131Y0124154D02*
X0088693Y0124154D01*
X0092850Y0120957D02*
X0097134Y0120957D01*
X0096902Y0122556D02*
X0094338Y0122556D01*
X0094656Y0124154D02*
X0095686Y0124154D01*
X0095113Y0125753D02*
X0094656Y0125753D01*
X0094656Y0127351D02*
X0095113Y0127351D01*
X0094656Y0128950D02*
X0095613Y0128950D01*
X0094656Y0130548D02*
X0096725Y0130548D01*
X0097311Y0132147D02*
X0094656Y0132147D01*
X0094656Y0133745D02*
X0095856Y0133745D01*
X0095193Y0135344D02*
X0094656Y0135344D01*
X0094656Y0136942D02*
X0095113Y0136942D01*
X0095443Y0138541D02*
X0094656Y0138541D01*
X0094656Y0140139D02*
X0096316Y0140139D01*
X0094656Y0141738D02*
X0098007Y0141738D01*
X0096121Y0143336D02*
X0094829Y0143336D01*
X0092271Y0148132D02*
X0091056Y0148132D01*
X0091056Y0149730D02*
X0095936Y0149730D01*
X0097505Y0151329D02*
X0091056Y0151329D01*
X0091056Y0152927D02*
X0096813Y0152927D01*
X0095737Y0154526D02*
X0091056Y0154526D01*
X0091056Y0156124D02*
X0095328Y0156124D01*
X0095418Y0157723D02*
X0091056Y0157723D01*
X0091056Y0159321D02*
X0096025Y0159321D01*
X0097456Y0160920D02*
X0091056Y0160920D01*
X0091056Y0162518D02*
X0096939Y0162518D01*
X0095702Y0164117D02*
X0091056Y0164117D01*
X0091056Y0165715D02*
X0095113Y0165715D01*
X0095113Y0167314D02*
X0091056Y0167314D01*
X0091056Y0168912D02*
X0095597Y0168912D01*
X0096687Y0170511D02*
X0091056Y0170511D01*
X0091056Y0172109D02*
X0097348Y0172109D01*
X0095871Y0173708D02*
X0091056Y0173708D01*
X0091056Y0175306D02*
X0095209Y0175306D01*
X0095113Y0176905D02*
X0091056Y0176905D01*
X0091056Y0178503D02*
X0095428Y0178503D01*
X0096279Y0180102D02*
X0091056Y0180102D01*
X0091056Y0181700D02*
X0095681Y0181700D01*
X0095113Y0183299D02*
X0090475Y0183299D01*
X0088876Y0184898D02*
X0095113Y0184898D01*
X0095113Y0186496D02*
X0087456Y0186496D01*
X0087456Y0188095D02*
X0095113Y0188095D01*
X0095113Y0189693D02*
X0086909Y0189693D01*
X0091403Y0191292D02*
X0095392Y0191292D01*
X0092737Y0192890D02*
X0110656Y0192890D01*
X0110656Y0191292D02*
X0105920Y0191292D01*
X0106200Y0189693D02*
X0110656Y0189693D01*
X0110656Y0188095D02*
X0106200Y0188095D01*
X0106200Y0186496D02*
X0110656Y0186496D01*
X0110656Y0184898D02*
X0106200Y0184898D01*
X0106200Y0183299D02*
X0110656Y0183299D01*
X0110656Y0181700D02*
X0105631Y0181700D01*
X0105034Y0180102D02*
X0110656Y0180102D01*
X0110656Y0178503D02*
X0105885Y0178503D01*
X0106200Y0176905D02*
X0110656Y0176905D01*
X0110656Y0175306D02*
X0106104Y0175306D01*
X0105442Y0173708D02*
X0110656Y0173708D01*
X0110656Y0172109D02*
X0103965Y0172109D01*
X0104625Y0170511D02*
X0110656Y0170511D01*
X0110656Y0168912D02*
X0105715Y0168912D01*
X0106200Y0167314D02*
X0110656Y0167314D01*
X0110656Y0165715D02*
X0106200Y0165715D01*
X0105611Y0164117D02*
X0110656Y0164117D01*
X0110656Y0162518D02*
X0104374Y0162518D01*
X0103857Y0160920D02*
X0110656Y0160920D01*
X0110656Y0159321D02*
X0105287Y0159321D01*
X0105895Y0157723D02*
X0110656Y0157723D01*
X0110656Y0156124D02*
X0105985Y0156124D01*
X0105576Y0154526D02*
X0110656Y0154526D01*
X0110656Y0152927D02*
X0104500Y0152927D01*
X0103807Y0151329D02*
X0110656Y0151329D01*
X0110656Y0149730D02*
X0105377Y0149730D01*
X0106039Y0148132D02*
X0110656Y0148132D01*
X0110656Y0146533D02*
X0106200Y0146533D01*
X0105950Y0144935D02*
X0110656Y0144935D01*
X0110656Y0143336D02*
X0105192Y0143336D01*
X0103305Y0141738D02*
X0110656Y0141738D01*
X0110478Y0140139D02*
X0104997Y0140139D01*
X0105869Y0138541D02*
X0108880Y0138541D01*
X0107281Y0136942D02*
X0106200Y0136942D01*
X0108241Y0130548D02*
X0156725Y0130548D01*
X0155613Y0128950D02*
X0106643Y0128950D01*
X0106200Y0127351D02*
X0155113Y0127351D01*
X0155113Y0125753D02*
X0106200Y0125753D01*
X0105627Y0124154D02*
X0155686Y0124154D01*
X0156902Y0122556D02*
X0104411Y0122556D01*
X0104179Y0120957D02*
X0157134Y0120957D01*
X0155782Y0119359D02*
X0105531Y0119359D01*
X0106193Y0117760D02*
X0155120Y0117760D01*
X0155113Y0116162D02*
X0106200Y0116162D01*
X0105796Y0114563D02*
X0155517Y0114563D01*
X0156493Y0112964D02*
X0104820Y0112964D01*
X0103733Y0111366D02*
X0157580Y0111366D01*
X0155952Y0109767D02*
X0105361Y0109767D01*
X0106023Y0108169D02*
X0155290Y0108169D01*
X0155113Y0106570D02*
X0106200Y0106570D01*
X0105965Y0104972D02*
X0155347Y0104972D01*
X0156084Y0103373D02*
X0105229Y0103373D01*
X0103395Y0101775D02*
X0157917Y0101775D01*
X0156353Y0100176D02*
X0104960Y0100176D01*
X0105854Y0098578D02*
X0155459Y0098578D01*
X0155113Y0096979D02*
X0106200Y0096979D01*
X0106135Y0095381D02*
X0155178Y0095381D01*
X0155840Y0093782D02*
X0105473Y0093782D01*
X0104039Y0092184D02*
X0157274Y0092184D01*
X0156762Y0090585D02*
X0104551Y0090585D01*
X0105684Y0088987D02*
X0155628Y0088987D01*
X0155113Y0087388D02*
X0106200Y0087388D01*
X0106200Y0085790D02*
X0155113Y0085790D01*
X0155671Y0084191D02*
X0105642Y0084191D01*
X0104448Y0082593D02*
X0156865Y0082593D01*
X0157171Y0080994D02*
X0104142Y0080994D01*
X0105515Y0079396D02*
X0155798Y0079396D01*
X0155136Y0077797D02*
X0106177Y0077797D01*
X0106200Y0076199D02*
X0155113Y0076199D01*
X0155501Y0074600D02*
X0105811Y0074600D01*
X0104857Y0073002D02*
X0156456Y0073002D01*
X0157669Y0071403D02*
X0103643Y0071403D01*
X0105332Y0069805D02*
X0155981Y0069805D01*
X0155305Y0068206D02*
X0106008Y0068206D01*
X0106200Y0066608D02*
X0155113Y0066608D01*
X0155332Y0065009D02*
X0105981Y0065009D01*
X0105266Y0063411D02*
X0156047Y0063411D01*
X0157828Y0061812D02*
X0103485Y0061812D01*
X0104923Y0060214D02*
X0156390Y0060214D01*
X0155474Y0058615D02*
X0105838Y0058615D01*
X0106200Y0057017D02*
X0155113Y0057017D01*
X0155163Y0055418D02*
X0106150Y0055418D01*
X0105488Y0053820D02*
X0155825Y0053820D01*
X0157236Y0052221D02*
X0104076Y0052221D01*
X0104514Y0050623D02*
X0156799Y0050623D01*
X0155644Y0049024D02*
X0105669Y0049024D01*
X0106200Y0047426D02*
X0155113Y0047426D01*
X0155113Y0045827D02*
X0106200Y0045827D01*
X0105657Y0044229D02*
X0155655Y0044229D01*
X0156827Y0042630D02*
X0104485Y0042630D01*
X0096827Y0042630D02*
X0087456Y0042630D01*
X0087456Y0041646D02*
X0086695Y0039808D01*
X0085289Y0038402D01*
X0083451Y0037640D01*
X0081462Y0037640D01*
X0079624Y0038402D01*
X0078218Y0039808D01*
X0077456Y0041646D01*
X0076695Y0039808D01*
X0075289Y0038402D01*
X0073451Y0037640D01*
X0071462Y0037640D01*
X0069624Y0038402D01*
X0068218Y0039808D01*
X0067456Y0041646D01*
X0067456Y0049635D01*
X0068218Y0051473D01*
X0069624Y0052879D01*
X0071462Y0053640D01*
X0073451Y0053640D01*
X0075289Y0052879D01*
X0076695Y0051473D01*
X0077456Y0049635D01*
X0077456Y0041646D01*
X0077456Y0049635D01*
X0078218Y0051473D01*
X0079624Y0052879D01*
X0081462Y0053640D01*
X0083451Y0053640D01*
X0085289Y0052879D01*
X0086695Y0051473D01*
X0087456Y0049635D01*
X0087456Y0041646D01*
X0087202Y0041031D02*
X0165378Y0041031D01*
X0165378Y0039433D02*
X0086320Y0039433D01*
X0083919Y0037834D02*
X0165378Y0037834D01*
X0165378Y0042630D02*
X0164485Y0042630D01*
X0097828Y0061812D02*
X0091656Y0061812D01*
X0091656Y0062946D02*
X0091656Y0059135D01*
X0088962Y0056440D01*
X0085151Y0056440D01*
X0082456Y0059135D01*
X0082456Y0062946D01*
X0085151Y0065640D01*
X0088962Y0065640D01*
X0091656Y0062946D01*
X0091192Y0063411D02*
X0096047Y0063411D01*
X0095332Y0065009D02*
X0089593Y0065009D01*
X0091656Y0060214D02*
X0096390Y0060214D01*
X0095474Y0058615D02*
X0091136Y0058615D01*
X0089538Y0057017D02*
X0095113Y0057017D01*
X0095163Y0055418D02*
X0078747Y0055418D01*
X0079059Y0055547D02*
X0080549Y0057038D01*
X0081356Y0058986D01*
X0081356Y0061095D01*
X0080549Y0063043D01*
X0079059Y0064534D01*
X0077111Y0065340D01*
X0075002Y0065340D01*
X0073054Y0064534D01*
X0071563Y0063043D01*
X0070756Y0061095D01*
X0070756Y0058986D01*
X0071563Y0057038D01*
X0073054Y0055547D01*
X0075002Y0054740D01*
X0077111Y0054740D01*
X0079059Y0055547D01*
X0080528Y0057017D02*
X0084575Y0057017D01*
X0082976Y0058615D02*
X0081203Y0058615D01*
X0081356Y0060214D02*
X0082456Y0060214D01*
X0082456Y0061812D02*
X0081059Y0061812D01*
X0080181Y0063411D02*
X0082921Y0063411D01*
X0084520Y0065009D02*
X0077910Y0065009D01*
X0074202Y0065009D02*
X0055378Y0065009D01*
X0055378Y0066608D02*
X0095113Y0066608D01*
X0095305Y0068206D02*
X0055378Y0068206D01*
X0054785Y0069805D02*
X0095981Y0069805D01*
X0097669Y0071403D02*
X0054123Y0071403D01*
X0052843Y0073002D02*
X0096456Y0073002D01*
X0095501Y0074600D02*
X0051245Y0074600D01*
X0052377Y0084220D02*
X0050195Y0085124D01*
X0048525Y0086794D01*
X0047621Y0088976D01*
X0047621Y0091338D01*
X0048525Y0093520D01*
X0050195Y0095190D01*
X0052377Y0096094D01*
X0054739Y0096094D01*
X0056921Y0095190D01*
X0058591Y0093520D01*
X0059495Y0091338D01*
X0059495Y0088976D01*
X0058591Y0086794D01*
X0056921Y0085124D01*
X0054739Y0084220D01*
X0052377Y0084220D01*
X0049529Y0085790D02*
X0042256Y0085790D01*
X0042256Y0087388D02*
X0048279Y0087388D01*
X0047621Y0088987D02*
X0042256Y0088987D01*
X0042256Y0090585D02*
X0047621Y0090585D01*
X0047971Y0092184D02*
X0042256Y0092184D01*
X0042256Y0093782D02*
X0048787Y0093782D01*
X0050655Y0095381D02*
X0042256Y0095381D01*
X0042256Y0096979D02*
X0071622Y0096979D01*
X0071563Y0097038D02*
X0073054Y0095547D01*
X0075002Y0094740D01*
X0077111Y0094740D01*
X0079059Y0095547D01*
X0080549Y0097038D01*
X0081356Y0098986D01*
X0081356Y0101095D01*
X0080549Y0103043D01*
X0079059Y0104534D01*
X0077111Y0105340D01*
X0075002Y0105340D01*
X0073054Y0104534D01*
X0071563Y0103043D01*
X0070756Y0101095D01*
X0070756Y0098986D01*
X0071563Y0097038D01*
X0070925Y0098578D02*
X0042256Y0098578D01*
X0042256Y0100176D02*
X0070756Y0100176D01*
X0071038Y0101775D02*
X0042256Y0101775D01*
X0042256Y0103373D02*
X0071894Y0103373D01*
X0074113Y0104972D02*
X0056553Y0104972D01*
X0056921Y0105124D02*
X0058591Y0106794D01*
X0059495Y0108976D01*
X0059495Y0111338D01*
X0058591Y0113520D01*
X0056921Y0115190D01*
X0054739Y0116094D01*
X0052377Y0116094D01*
X0050195Y0115190D01*
X0048525Y0113520D01*
X0047621Y0111338D01*
X0047621Y0108976D01*
X0048525Y0106794D01*
X0050195Y0105124D01*
X0052377Y0104220D01*
X0054739Y0104220D01*
X0056921Y0105124D01*
X0058367Y0106570D02*
X0095113Y0106570D01*
X0095290Y0108169D02*
X0059161Y0108169D01*
X0059495Y0109767D02*
X0095952Y0109767D01*
X0097580Y0111366D02*
X0059483Y0111366D01*
X0058821Y0112964D02*
X0074272Y0112964D01*
X0072984Y0114563D02*
X0057548Y0114563D01*
X0049567Y0114563D02*
X0042256Y0114563D01*
X0042256Y0112964D02*
X0048295Y0112964D01*
X0047632Y0111366D02*
X0042256Y0111366D01*
X0042256Y0109767D02*
X0047621Y0109767D01*
X0047955Y0108169D02*
X0042256Y0108169D01*
X0042256Y0106570D02*
X0048749Y0106570D01*
X0050562Y0104972D02*
X0042256Y0104972D01*
X0042256Y0116162D02*
X0072556Y0116162D01*
X0072753Y0117760D02*
X0042256Y0117760D01*
X0042256Y0138541D02*
X0050502Y0138541D01*
X0049037Y0140139D02*
X0042256Y0140139D01*
X0042256Y0157723D02*
X0051479Y0157723D01*
X0049361Y0159321D02*
X0042256Y0159321D01*
X0042256Y0160920D02*
X0048441Y0160920D01*
X0048018Y0162518D02*
X0042256Y0162518D01*
X0042256Y0164117D02*
X0048018Y0164117D01*
X0046494Y0165715D02*
X0042256Y0165715D01*
X0042256Y0167314D02*
X0045015Y0167314D01*
X0044651Y0168912D02*
X0042256Y0168912D01*
X0042256Y0170511D02*
X0044669Y0170511D01*
X0044681Y0172109D02*
X0042256Y0172109D01*
X0042256Y0173708D02*
X0044693Y0173708D01*
X0044705Y0175306D02*
X0042256Y0175306D01*
X0042256Y0176905D02*
X0044717Y0176905D01*
X0044729Y0178503D02*
X0042256Y0178503D01*
X0042256Y0180102D02*
X0044741Y0180102D01*
X0044753Y0181700D02*
X0042256Y0181700D01*
X0042256Y0183299D02*
X0044765Y0183299D01*
X0044777Y0184898D02*
X0042256Y0184898D01*
X0042256Y0186496D02*
X0044789Y0186496D01*
X0044801Y0188095D02*
X0042256Y0188095D01*
X0042256Y0189693D02*
X0044813Y0189693D01*
X0044710Y0191292D02*
X0042256Y0191292D01*
X0042256Y0192890D02*
X0043376Y0192890D01*
X0042756Y0194489D02*
X0042256Y0194489D01*
X0042256Y0196087D02*
X0042756Y0196087D01*
X0043250Y0197686D02*
X0042256Y0197686D01*
X0042256Y0199284D02*
X0044405Y0199284D01*
X0046531Y0200883D02*
X0042256Y0200883D01*
X0042256Y0202481D02*
X0047076Y0202481D01*
X0047621Y0204080D02*
X0042256Y0204080D01*
X0042256Y0205678D02*
X0043042Y0205678D01*
X0055404Y0207440D02*
X0056498Y0208534D01*
X0057978Y0212107D01*
X0057978Y0215974D01*
X0057150Y0217971D01*
X0070365Y0217971D01*
X0068008Y0215614D01*
X0068008Y0211267D01*
X0071083Y0208192D01*
X0075430Y0208192D01*
X0078256Y0211019D01*
X0081083Y0208192D01*
X0085430Y0208192D01*
X0088256Y0211019D01*
X0090056Y0209219D01*
X0090056Y0207440D01*
X0055404Y0207440D01*
X0056639Y0208875D02*
X0070400Y0208875D01*
X0068801Y0210474D02*
X0057301Y0210474D01*
X0057963Y0212072D02*
X0068008Y0212072D01*
X0068008Y0213671D02*
X0057978Y0213671D01*
X0057978Y0215269D02*
X0068008Y0215269D01*
X0069262Y0216868D02*
X0057607Y0216868D01*
X0076113Y0208875D02*
X0080400Y0208875D01*
X0078801Y0210474D02*
X0077711Y0210474D01*
X0086113Y0208875D02*
X0090056Y0208875D01*
X0088801Y0210474D02*
X0087711Y0210474D01*
X0091708Y0199284D02*
X0110656Y0199284D01*
X0110656Y0197686D02*
X0092863Y0197686D01*
X0093356Y0196087D02*
X0110656Y0196087D01*
X0110656Y0194489D02*
X0093356Y0194489D01*
X0085856Y0151329D02*
X0085273Y0151329D01*
X0085458Y0143336D02*
X0085856Y0143336D01*
X0085856Y0130548D02*
X0082495Y0130548D01*
X0091251Y0119359D02*
X0095782Y0119359D01*
X0095120Y0117760D02*
X0089653Y0117760D01*
X0088054Y0116162D02*
X0095113Y0116162D01*
X0095517Y0114563D02*
X0086456Y0114563D01*
X0083841Y0112964D02*
X0096493Y0112964D01*
X0095347Y0104972D02*
X0089630Y0104972D01*
X0088962Y0105640D02*
X0085151Y0105640D01*
X0082456Y0102946D01*
X0082456Y0099135D01*
X0085151Y0096440D01*
X0088962Y0096440D01*
X0091656Y0099135D01*
X0091656Y0102946D01*
X0088962Y0105640D01*
X0091229Y0103373D02*
X0096084Y0103373D01*
X0097917Y0101775D02*
X0091656Y0101775D01*
X0091656Y0100176D02*
X0096353Y0100176D01*
X0095459Y0098578D02*
X0091099Y0098578D01*
X0089501Y0096979D02*
X0095113Y0096979D01*
X0095178Y0095381D02*
X0078657Y0095381D01*
X0080491Y0096979D02*
X0084612Y0096979D01*
X0083014Y0098578D02*
X0081187Y0098578D01*
X0081356Y0100176D02*
X0082456Y0100176D01*
X0082456Y0101775D02*
X0081075Y0101775D01*
X0080219Y0103373D02*
X0082884Y0103373D01*
X0084483Y0104972D02*
X0078000Y0104972D01*
X0073456Y0095381D02*
X0056461Y0095381D01*
X0058329Y0093782D02*
X0095840Y0093782D01*
X0097274Y0092184D02*
X0059145Y0092184D01*
X0059495Y0090585D02*
X0096762Y0090585D01*
X0095628Y0088987D02*
X0059495Y0088987D01*
X0058837Y0087388D02*
X0095113Y0087388D01*
X0095113Y0085790D02*
X0057587Y0085790D01*
X0042256Y0084191D02*
X0095671Y0084191D01*
X0096865Y0082593D02*
X0042256Y0082593D01*
X0042256Y0080994D02*
X0097171Y0080994D01*
X0095798Y0079396D02*
X0042256Y0079396D01*
X0042256Y0077797D02*
X0095136Y0077797D01*
X0095113Y0076199D02*
X0042256Y0076199D01*
X0053178Y0060214D02*
X0070756Y0060214D01*
X0070910Y0058615D02*
X0051579Y0058615D01*
X0048308Y0057017D02*
X0071585Y0057017D01*
X0073366Y0055418D02*
X0042256Y0055418D01*
X0042256Y0053820D02*
X0095825Y0053820D01*
X0097236Y0052221D02*
X0085947Y0052221D01*
X0087047Y0050623D02*
X0096799Y0050623D01*
X0095644Y0049024D02*
X0087456Y0049024D01*
X0087456Y0047426D02*
X0095113Y0047426D01*
X0095113Y0045827D02*
X0087456Y0045827D01*
X0087456Y0044229D02*
X0095655Y0044229D01*
X0080993Y0037834D02*
X0073919Y0037834D01*
X0070993Y0037834D02*
X0042256Y0037834D01*
X0042256Y0039433D02*
X0058876Y0039433D01*
X0058795Y0039513D02*
X0059329Y0038979D01*
X0059941Y0038535D01*
X0060614Y0038192D01*
X0061332Y0037959D01*
X0062079Y0037840D01*
X0062256Y0037840D01*
X0062256Y0045440D01*
X0062656Y0045440D01*
X0062656Y0037840D01*
X0062834Y0037840D01*
X0063580Y0037959D01*
X0064299Y0038192D01*
X0064972Y0038535D01*
X0065583Y0038979D01*
X0066118Y0039513D01*
X0066562Y0040125D01*
X0066905Y0040798D01*
X0067138Y0041516D01*
X0067256Y0042263D01*
X0067256Y0045440D01*
X0062656Y0045440D01*
X0062656Y0045840D01*
X0062256Y0045840D01*
X0062256Y0045440D01*
X0057656Y0045440D01*
X0057656Y0042263D01*
X0057775Y0041516D01*
X0058008Y0040798D01*
X0058351Y0040125D01*
X0058795Y0039513D01*
X0057932Y0041031D02*
X0042256Y0041031D01*
X0042256Y0042630D02*
X0057656Y0042630D01*
X0057656Y0044229D02*
X0042256Y0044229D01*
X0042256Y0045827D02*
X0062256Y0045827D01*
X0062256Y0045840D02*
X0057656Y0045840D01*
X0057656Y0049018D01*
X0057775Y0049764D01*
X0058008Y0050483D01*
X0058351Y0051156D01*
X0058795Y0051767D01*
X0059329Y0052302D01*
X0059941Y0052746D01*
X0060614Y0053089D01*
X0061332Y0053322D01*
X0062079Y0053440D01*
X0062256Y0053440D01*
X0062256Y0045840D01*
X0062656Y0045840D02*
X0062656Y0053440D01*
X0062834Y0053440D01*
X0063580Y0053322D01*
X0064299Y0053089D01*
X0064972Y0052746D01*
X0065583Y0052302D01*
X0066118Y0051767D01*
X0066562Y0051156D01*
X0066905Y0050483D01*
X0067138Y0049764D01*
X0067256Y0049018D01*
X0067256Y0045840D01*
X0062656Y0045840D01*
X0062656Y0045827D02*
X0067456Y0045827D01*
X0067456Y0044229D02*
X0067256Y0044229D01*
X0067256Y0042630D02*
X0067456Y0042630D01*
X0067711Y0041031D02*
X0066981Y0041031D01*
X0066037Y0039433D02*
X0068593Y0039433D01*
X0062656Y0039433D02*
X0062256Y0039433D01*
X0062256Y0041031D02*
X0062656Y0041031D01*
X0062656Y0042630D02*
X0062256Y0042630D01*
X0062256Y0044229D02*
X0062656Y0044229D01*
X0062656Y0047426D02*
X0062256Y0047426D01*
X0062256Y0049024D02*
X0062656Y0049024D01*
X0062656Y0050623D02*
X0062256Y0050623D01*
X0062256Y0052221D02*
X0062656Y0052221D01*
X0065664Y0052221D02*
X0068966Y0052221D01*
X0067865Y0050623D02*
X0066834Y0050623D01*
X0067255Y0049024D02*
X0067456Y0049024D01*
X0067456Y0047426D02*
X0067256Y0047426D01*
X0059249Y0052221D02*
X0042256Y0052221D01*
X0042256Y0050623D02*
X0058079Y0050623D01*
X0057657Y0049024D02*
X0042256Y0049024D01*
X0042256Y0047426D02*
X0057656Y0047426D01*
X0054261Y0061812D02*
X0071054Y0061812D01*
X0071931Y0063411D02*
X0054924Y0063411D01*
X0043005Y0057017D02*
X0042256Y0057017D01*
X0075947Y0052221D02*
X0078966Y0052221D01*
X0077865Y0050623D02*
X0077047Y0050623D01*
X0077456Y0049024D02*
X0077456Y0049024D01*
X0077456Y0047426D02*
X0077456Y0047426D01*
X0077456Y0045827D02*
X0077456Y0045827D01*
X0077456Y0044229D02*
X0077456Y0044229D01*
X0077456Y0042630D02*
X0077456Y0042630D01*
X0077202Y0041031D02*
X0077711Y0041031D01*
X0078593Y0039433D02*
X0076320Y0039433D01*
X0163845Y0191292D02*
X0165378Y0191292D01*
D22*
X0132056Y0155240D03*
X0123256Y0136640D03*
X0061656Y0212640D03*
M02*
