G75*
%MOIN*%
%OFA0B0*%
%FSLAX25Y25*%
%IPPOS*%
%LPD*%
%AMOC8*
5,1,8,0,0,1.08239X$1,22.5*
%
%ADD10C,0.00000*%
%ADD11C,0.00600*%
%ADD12R,0.02400X0.03400*%
%ADD13C,0.00500*%
%ADD14C,0.00787*%
%ADD15C,0.00800*%
%ADD16C,0.00400*%
%ADD17C,0.02000*%
%ADD18R,0.42000X0.03000*%
%ADD19R,0.07500X0.02000*%
%ADD20R,0.03000X0.02000*%
%ADD21R,0.10000X0.02000*%
%ADD22R,0.03000X0.07500*%
%ADD23R,0.02000X0.10000*%
%ADD24R,0.07500X0.03000*%
D10*
X0037456Y0031440D02*
X0037456Y0222771D01*
X0170178Y0222771D01*
X0170178Y0031440D01*
X0037456Y0031440D01*
X0040735Y0066440D02*
X0040737Y0066580D01*
X0040743Y0066720D01*
X0040753Y0066859D01*
X0040767Y0066998D01*
X0040785Y0067137D01*
X0040806Y0067275D01*
X0040832Y0067413D01*
X0040862Y0067550D01*
X0040895Y0067685D01*
X0040933Y0067820D01*
X0040974Y0067954D01*
X0041019Y0068087D01*
X0041067Y0068218D01*
X0041120Y0068347D01*
X0041176Y0068476D01*
X0041235Y0068602D01*
X0041299Y0068727D01*
X0041365Y0068850D01*
X0041436Y0068971D01*
X0041509Y0069090D01*
X0041586Y0069207D01*
X0041667Y0069321D01*
X0041750Y0069433D01*
X0041837Y0069543D01*
X0041927Y0069651D01*
X0042019Y0069755D01*
X0042115Y0069857D01*
X0042214Y0069957D01*
X0042315Y0070053D01*
X0042419Y0070147D01*
X0042526Y0070237D01*
X0042635Y0070324D01*
X0042747Y0070409D01*
X0042861Y0070490D01*
X0042977Y0070568D01*
X0043095Y0070642D01*
X0043216Y0070713D01*
X0043338Y0070781D01*
X0043463Y0070845D01*
X0043589Y0070906D01*
X0043716Y0070963D01*
X0043846Y0071016D01*
X0043977Y0071066D01*
X0044109Y0071111D01*
X0044242Y0071154D01*
X0044377Y0071192D01*
X0044512Y0071226D01*
X0044649Y0071257D01*
X0044786Y0071284D01*
X0044924Y0071306D01*
X0045063Y0071325D01*
X0045202Y0071340D01*
X0045341Y0071351D01*
X0045481Y0071358D01*
X0045621Y0071361D01*
X0045761Y0071360D01*
X0045901Y0071355D01*
X0046040Y0071346D01*
X0046180Y0071333D01*
X0046319Y0071316D01*
X0046457Y0071295D01*
X0046595Y0071271D01*
X0046732Y0071242D01*
X0046868Y0071210D01*
X0047003Y0071173D01*
X0047137Y0071133D01*
X0047270Y0071089D01*
X0047401Y0071041D01*
X0047531Y0070990D01*
X0047660Y0070935D01*
X0047787Y0070876D01*
X0047912Y0070813D01*
X0048035Y0070748D01*
X0048157Y0070678D01*
X0048276Y0070605D01*
X0048394Y0070529D01*
X0048509Y0070450D01*
X0048622Y0070367D01*
X0048732Y0070281D01*
X0048840Y0070192D01*
X0048945Y0070100D01*
X0049048Y0070005D01*
X0049148Y0069907D01*
X0049245Y0069807D01*
X0049339Y0069703D01*
X0049431Y0069597D01*
X0049519Y0069489D01*
X0049604Y0069378D01*
X0049686Y0069264D01*
X0049765Y0069148D01*
X0049840Y0069031D01*
X0049912Y0068911D01*
X0049980Y0068789D01*
X0050045Y0068665D01*
X0050107Y0068539D01*
X0050165Y0068412D01*
X0050219Y0068283D01*
X0050270Y0068152D01*
X0050316Y0068020D01*
X0050359Y0067887D01*
X0050399Y0067753D01*
X0050434Y0067618D01*
X0050466Y0067481D01*
X0050493Y0067344D01*
X0050517Y0067206D01*
X0050537Y0067068D01*
X0050553Y0066929D01*
X0050565Y0066789D01*
X0050573Y0066650D01*
X0050577Y0066510D01*
X0050577Y0066370D01*
X0050573Y0066230D01*
X0050565Y0066091D01*
X0050553Y0065951D01*
X0050537Y0065812D01*
X0050517Y0065674D01*
X0050493Y0065536D01*
X0050466Y0065399D01*
X0050434Y0065262D01*
X0050399Y0065127D01*
X0050359Y0064993D01*
X0050316Y0064860D01*
X0050270Y0064728D01*
X0050219Y0064597D01*
X0050165Y0064468D01*
X0050107Y0064341D01*
X0050045Y0064215D01*
X0049980Y0064091D01*
X0049912Y0063969D01*
X0049840Y0063849D01*
X0049765Y0063732D01*
X0049686Y0063616D01*
X0049604Y0063502D01*
X0049519Y0063391D01*
X0049431Y0063283D01*
X0049339Y0063177D01*
X0049245Y0063073D01*
X0049148Y0062973D01*
X0049048Y0062875D01*
X0048945Y0062780D01*
X0048840Y0062688D01*
X0048732Y0062599D01*
X0048622Y0062513D01*
X0048509Y0062430D01*
X0048394Y0062351D01*
X0048276Y0062275D01*
X0048157Y0062202D01*
X0048035Y0062132D01*
X0047912Y0062067D01*
X0047787Y0062004D01*
X0047660Y0061945D01*
X0047531Y0061890D01*
X0047401Y0061839D01*
X0047270Y0061791D01*
X0047137Y0061747D01*
X0047003Y0061707D01*
X0046868Y0061670D01*
X0046732Y0061638D01*
X0046595Y0061609D01*
X0046457Y0061585D01*
X0046319Y0061564D01*
X0046180Y0061547D01*
X0046040Y0061534D01*
X0045901Y0061525D01*
X0045761Y0061520D01*
X0045621Y0061519D01*
X0045481Y0061522D01*
X0045341Y0061529D01*
X0045202Y0061540D01*
X0045063Y0061555D01*
X0044924Y0061574D01*
X0044786Y0061596D01*
X0044649Y0061623D01*
X0044512Y0061654D01*
X0044377Y0061688D01*
X0044242Y0061726D01*
X0044109Y0061769D01*
X0043977Y0061814D01*
X0043846Y0061864D01*
X0043716Y0061917D01*
X0043589Y0061974D01*
X0043463Y0062035D01*
X0043338Y0062099D01*
X0043216Y0062167D01*
X0043095Y0062238D01*
X0042977Y0062312D01*
X0042861Y0062390D01*
X0042747Y0062471D01*
X0042635Y0062556D01*
X0042526Y0062643D01*
X0042419Y0062733D01*
X0042315Y0062827D01*
X0042214Y0062923D01*
X0042115Y0063023D01*
X0042019Y0063125D01*
X0041927Y0063229D01*
X0041837Y0063337D01*
X0041750Y0063447D01*
X0041667Y0063559D01*
X0041586Y0063673D01*
X0041509Y0063790D01*
X0041436Y0063909D01*
X0041365Y0064030D01*
X0041299Y0064153D01*
X0041235Y0064278D01*
X0041176Y0064404D01*
X0041120Y0064533D01*
X0041067Y0064662D01*
X0041019Y0064793D01*
X0040974Y0064926D01*
X0040933Y0065060D01*
X0040895Y0065195D01*
X0040862Y0065330D01*
X0040832Y0065467D01*
X0040806Y0065605D01*
X0040785Y0065743D01*
X0040767Y0065882D01*
X0040753Y0066021D01*
X0040743Y0066160D01*
X0040737Y0066300D01*
X0040735Y0066440D01*
X0043335Y0214040D02*
X0043337Y0214180D01*
X0043343Y0214320D01*
X0043353Y0214459D01*
X0043367Y0214598D01*
X0043385Y0214737D01*
X0043406Y0214875D01*
X0043432Y0215013D01*
X0043462Y0215150D01*
X0043495Y0215285D01*
X0043533Y0215420D01*
X0043574Y0215554D01*
X0043619Y0215687D01*
X0043667Y0215818D01*
X0043720Y0215947D01*
X0043776Y0216076D01*
X0043835Y0216202D01*
X0043899Y0216327D01*
X0043965Y0216450D01*
X0044036Y0216571D01*
X0044109Y0216690D01*
X0044186Y0216807D01*
X0044267Y0216921D01*
X0044350Y0217033D01*
X0044437Y0217143D01*
X0044527Y0217251D01*
X0044619Y0217355D01*
X0044715Y0217457D01*
X0044814Y0217557D01*
X0044915Y0217653D01*
X0045019Y0217747D01*
X0045126Y0217837D01*
X0045235Y0217924D01*
X0045347Y0218009D01*
X0045461Y0218090D01*
X0045577Y0218168D01*
X0045695Y0218242D01*
X0045816Y0218313D01*
X0045938Y0218381D01*
X0046063Y0218445D01*
X0046189Y0218506D01*
X0046316Y0218563D01*
X0046446Y0218616D01*
X0046577Y0218666D01*
X0046709Y0218711D01*
X0046842Y0218754D01*
X0046977Y0218792D01*
X0047112Y0218826D01*
X0047249Y0218857D01*
X0047386Y0218884D01*
X0047524Y0218906D01*
X0047663Y0218925D01*
X0047802Y0218940D01*
X0047941Y0218951D01*
X0048081Y0218958D01*
X0048221Y0218961D01*
X0048361Y0218960D01*
X0048501Y0218955D01*
X0048640Y0218946D01*
X0048780Y0218933D01*
X0048919Y0218916D01*
X0049057Y0218895D01*
X0049195Y0218871D01*
X0049332Y0218842D01*
X0049468Y0218810D01*
X0049603Y0218773D01*
X0049737Y0218733D01*
X0049870Y0218689D01*
X0050001Y0218641D01*
X0050131Y0218590D01*
X0050260Y0218535D01*
X0050387Y0218476D01*
X0050512Y0218413D01*
X0050635Y0218348D01*
X0050757Y0218278D01*
X0050876Y0218205D01*
X0050994Y0218129D01*
X0051109Y0218050D01*
X0051222Y0217967D01*
X0051332Y0217881D01*
X0051440Y0217792D01*
X0051545Y0217700D01*
X0051648Y0217605D01*
X0051748Y0217507D01*
X0051845Y0217407D01*
X0051939Y0217303D01*
X0052031Y0217197D01*
X0052119Y0217089D01*
X0052204Y0216978D01*
X0052286Y0216864D01*
X0052365Y0216748D01*
X0052440Y0216631D01*
X0052512Y0216511D01*
X0052580Y0216389D01*
X0052645Y0216265D01*
X0052707Y0216139D01*
X0052765Y0216012D01*
X0052819Y0215883D01*
X0052870Y0215752D01*
X0052916Y0215620D01*
X0052959Y0215487D01*
X0052999Y0215353D01*
X0053034Y0215218D01*
X0053066Y0215081D01*
X0053093Y0214944D01*
X0053117Y0214806D01*
X0053137Y0214668D01*
X0053153Y0214529D01*
X0053165Y0214389D01*
X0053173Y0214250D01*
X0053177Y0214110D01*
X0053177Y0213970D01*
X0053173Y0213830D01*
X0053165Y0213691D01*
X0053153Y0213551D01*
X0053137Y0213412D01*
X0053117Y0213274D01*
X0053093Y0213136D01*
X0053066Y0212999D01*
X0053034Y0212862D01*
X0052999Y0212727D01*
X0052959Y0212593D01*
X0052916Y0212460D01*
X0052870Y0212328D01*
X0052819Y0212197D01*
X0052765Y0212068D01*
X0052707Y0211941D01*
X0052645Y0211815D01*
X0052580Y0211691D01*
X0052512Y0211569D01*
X0052440Y0211449D01*
X0052365Y0211332D01*
X0052286Y0211216D01*
X0052204Y0211102D01*
X0052119Y0210991D01*
X0052031Y0210883D01*
X0051939Y0210777D01*
X0051845Y0210673D01*
X0051748Y0210573D01*
X0051648Y0210475D01*
X0051545Y0210380D01*
X0051440Y0210288D01*
X0051332Y0210199D01*
X0051222Y0210113D01*
X0051109Y0210030D01*
X0050994Y0209951D01*
X0050876Y0209875D01*
X0050757Y0209802D01*
X0050635Y0209732D01*
X0050512Y0209667D01*
X0050387Y0209604D01*
X0050260Y0209545D01*
X0050131Y0209490D01*
X0050001Y0209439D01*
X0049870Y0209391D01*
X0049737Y0209347D01*
X0049603Y0209307D01*
X0049468Y0209270D01*
X0049332Y0209238D01*
X0049195Y0209209D01*
X0049057Y0209185D01*
X0048919Y0209164D01*
X0048780Y0209147D01*
X0048640Y0209134D01*
X0048501Y0209125D01*
X0048361Y0209120D01*
X0048221Y0209119D01*
X0048081Y0209122D01*
X0047941Y0209129D01*
X0047802Y0209140D01*
X0047663Y0209155D01*
X0047524Y0209174D01*
X0047386Y0209196D01*
X0047249Y0209223D01*
X0047112Y0209254D01*
X0046977Y0209288D01*
X0046842Y0209326D01*
X0046709Y0209369D01*
X0046577Y0209414D01*
X0046446Y0209464D01*
X0046316Y0209517D01*
X0046189Y0209574D01*
X0046063Y0209635D01*
X0045938Y0209699D01*
X0045816Y0209767D01*
X0045695Y0209838D01*
X0045577Y0209912D01*
X0045461Y0209990D01*
X0045347Y0210071D01*
X0045235Y0210156D01*
X0045126Y0210243D01*
X0045019Y0210333D01*
X0044915Y0210427D01*
X0044814Y0210523D01*
X0044715Y0210623D01*
X0044619Y0210725D01*
X0044527Y0210829D01*
X0044437Y0210937D01*
X0044350Y0211047D01*
X0044267Y0211159D01*
X0044186Y0211273D01*
X0044109Y0211390D01*
X0044036Y0211509D01*
X0043965Y0211630D01*
X0043899Y0211753D01*
X0043835Y0211878D01*
X0043776Y0212004D01*
X0043720Y0212133D01*
X0043667Y0212262D01*
X0043619Y0212393D01*
X0043574Y0212526D01*
X0043533Y0212660D01*
X0043495Y0212795D01*
X0043462Y0212930D01*
X0043432Y0213067D01*
X0043406Y0213205D01*
X0043385Y0213343D01*
X0043367Y0213482D01*
X0043353Y0213621D01*
X0043343Y0213760D01*
X0043337Y0213900D01*
X0043335Y0214040D01*
X0153335Y0213240D02*
X0153337Y0213380D01*
X0153343Y0213520D01*
X0153353Y0213659D01*
X0153367Y0213798D01*
X0153385Y0213937D01*
X0153406Y0214075D01*
X0153432Y0214213D01*
X0153462Y0214350D01*
X0153495Y0214485D01*
X0153533Y0214620D01*
X0153574Y0214754D01*
X0153619Y0214887D01*
X0153667Y0215018D01*
X0153720Y0215147D01*
X0153776Y0215276D01*
X0153835Y0215402D01*
X0153899Y0215527D01*
X0153965Y0215650D01*
X0154036Y0215771D01*
X0154109Y0215890D01*
X0154186Y0216007D01*
X0154267Y0216121D01*
X0154350Y0216233D01*
X0154437Y0216343D01*
X0154527Y0216451D01*
X0154619Y0216555D01*
X0154715Y0216657D01*
X0154814Y0216757D01*
X0154915Y0216853D01*
X0155019Y0216947D01*
X0155126Y0217037D01*
X0155235Y0217124D01*
X0155347Y0217209D01*
X0155461Y0217290D01*
X0155577Y0217368D01*
X0155695Y0217442D01*
X0155816Y0217513D01*
X0155938Y0217581D01*
X0156063Y0217645D01*
X0156189Y0217706D01*
X0156316Y0217763D01*
X0156446Y0217816D01*
X0156577Y0217866D01*
X0156709Y0217911D01*
X0156842Y0217954D01*
X0156977Y0217992D01*
X0157112Y0218026D01*
X0157249Y0218057D01*
X0157386Y0218084D01*
X0157524Y0218106D01*
X0157663Y0218125D01*
X0157802Y0218140D01*
X0157941Y0218151D01*
X0158081Y0218158D01*
X0158221Y0218161D01*
X0158361Y0218160D01*
X0158501Y0218155D01*
X0158640Y0218146D01*
X0158780Y0218133D01*
X0158919Y0218116D01*
X0159057Y0218095D01*
X0159195Y0218071D01*
X0159332Y0218042D01*
X0159468Y0218010D01*
X0159603Y0217973D01*
X0159737Y0217933D01*
X0159870Y0217889D01*
X0160001Y0217841D01*
X0160131Y0217790D01*
X0160260Y0217735D01*
X0160387Y0217676D01*
X0160512Y0217613D01*
X0160635Y0217548D01*
X0160757Y0217478D01*
X0160876Y0217405D01*
X0160994Y0217329D01*
X0161109Y0217250D01*
X0161222Y0217167D01*
X0161332Y0217081D01*
X0161440Y0216992D01*
X0161545Y0216900D01*
X0161648Y0216805D01*
X0161748Y0216707D01*
X0161845Y0216607D01*
X0161939Y0216503D01*
X0162031Y0216397D01*
X0162119Y0216289D01*
X0162204Y0216178D01*
X0162286Y0216064D01*
X0162365Y0215948D01*
X0162440Y0215831D01*
X0162512Y0215711D01*
X0162580Y0215589D01*
X0162645Y0215465D01*
X0162707Y0215339D01*
X0162765Y0215212D01*
X0162819Y0215083D01*
X0162870Y0214952D01*
X0162916Y0214820D01*
X0162959Y0214687D01*
X0162999Y0214553D01*
X0163034Y0214418D01*
X0163066Y0214281D01*
X0163093Y0214144D01*
X0163117Y0214006D01*
X0163137Y0213868D01*
X0163153Y0213729D01*
X0163165Y0213589D01*
X0163173Y0213450D01*
X0163177Y0213310D01*
X0163177Y0213170D01*
X0163173Y0213030D01*
X0163165Y0212891D01*
X0163153Y0212751D01*
X0163137Y0212612D01*
X0163117Y0212474D01*
X0163093Y0212336D01*
X0163066Y0212199D01*
X0163034Y0212062D01*
X0162999Y0211927D01*
X0162959Y0211793D01*
X0162916Y0211660D01*
X0162870Y0211528D01*
X0162819Y0211397D01*
X0162765Y0211268D01*
X0162707Y0211141D01*
X0162645Y0211015D01*
X0162580Y0210891D01*
X0162512Y0210769D01*
X0162440Y0210649D01*
X0162365Y0210532D01*
X0162286Y0210416D01*
X0162204Y0210302D01*
X0162119Y0210191D01*
X0162031Y0210083D01*
X0161939Y0209977D01*
X0161845Y0209873D01*
X0161748Y0209773D01*
X0161648Y0209675D01*
X0161545Y0209580D01*
X0161440Y0209488D01*
X0161332Y0209399D01*
X0161222Y0209313D01*
X0161109Y0209230D01*
X0160994Y0209151D01*
X0160876Y0209075D01*
X0160757Y0209002D01*
X0160635Y0208932D01*
X0160512Y0208867D01*
X0160387Y0208804D01*
X0160260Y0208745D01*
X0160131Y0208690D01*
X0160001Y0208639D01*
X0159870Y0208591D01*
X0159737Y0208547D01*
X0159603Y0208507D01*
X0159468Y0208470D01*
X0159332Y0208438D01*
X0159195Y0208409D01*
X0159057Y0208385D01*
X0158919Y0208364D01*
X0158780Y0208347D01*
X0158640Y0208334D01*
X0158501Y0208325D01*
X0158361Y0208320D01*
X0158221Y0208319D01*
X0158081Y0208322D01*
X0157941Y0208329D01*
X0157802Y0208340D01*
X0157663Y0208355D01*
X0157524Y0208374D01*
X0157386Y0208396D01*
X0157249Y0208423D01*
X0157112Y0208454D01*
X0156977Y0208488D01*
X0156842Y0208526D01*
X0156709Y0208569D01*
X0156577Y0208614D01*
X0156446Y0208664D01*
X0156316Y0208717D01*
X0156189Y0208774D01*
X0156063Y0208835D01*
X0155938Y0208899D01*
X0155816Y0208967D01*
X0155695Y0209038D01*
X0155577Y0209112D01*
X0155461Y0209190D01*
X0155347Y0209271D01*
X0155235Y0209356D01*
X0155126Y0209443D01*
X0155019Y0209533D01*
X0154915Y0209627D01*
X0154814Y0209723D01*
X0154715Y0209823D01*
X0154619Y0209925D01*
X0154527Y0210029D01*
X0154437Y0210137D01*
X0154350Y0210247D01*
X0154267Y0210359D01*
X0154186Y0210473D01*
X0154109Y0210590D01*
X0154036Y0210709D01*
X0153965Y0210830D01*
X0153899Y0210953D01*
X0153835Y0211078D01*
X0153776Y0211204D01*
X0153720Y0211333D01*
X0153667Y0211462D01*
X0153619Y0211593D01*
X0153574Y0211726D01*
X0153533Y0211860D01*
X0153495Y0211995D01*
X0153462Y0212130D01*
X0153432Y0212267D01*
X0153406Y0212405D01*
X0153385Y0212543D01*
X0153367Y0212682D01*
X0153353Y0212821D01*
X0153343Y0212960D01*
X0153337Y0213100D01*
X0153335Y0213240D01*
D11*
X0130475Y0189966D02*
X0131543Y0188899D01*
X0131543Y0184628D01*
X0130475Y0183561D01*
X0128340Y0183561D01*
X0127272Y0184628D01*
X0127272Y0188899D01*
X0128340Y0189966D01*
X0130475Y0189966D01*
X0125097Y0189966D02*
X0125097Y0183561D01*
X0120827Y0189966D01*
X0120827Y0183561D01*
X0118652Y0183561D02*
X0118652Y0187831D01*
X0116517Y0189966D01*
X0114381Y0187831D01*
X0114381Y0183561D01*
X0112206Y0183561D02*
X0112206Y0189966D01*
X0114381Y0186764D02*
X0118652Y0186764D01*
X0112206Y0183561D02*
X0107936Y0189966D01*
X0107936Y0183561D01*
X0087356Y0178740D02*
X0087356Y0177240D01*
X0086856Y0176740D01*
X0086856Y0157740D01*
X0087356Y0157240D01*
X0087356Y0155740D01*
X0087354Y0155680D01*
X0087349Y0155619D01*
X0087340Y0155560D01*
X0087327Y0155501D01*
X0087311Y0155442D01*
X0087291Y0155385D01*
X0087268Y0155330D01*
X0087241Y0155275D01*
X0087212Y0155223D01*
X0087179Y0155172D01*
X0087143Y0155123D01*
X0087105Y0155077D01*
X0087063Y0155033D01*
X0087019Y0154991D01*
X0086973Y0154953D01*
X0086924Y0154917D01*
X0086873Y0154884D01*
X0086821Y0154855D01*
X0086766Y0154828D01*
X0086711Y0154805D01*
X0086654Y0154785D01*
X0086595Y0154769D01*
X0086536Y0154756D01*
X0086477Y0154747D01*
X0086416Y0154742D01*
X0086356Y0154740D01*
X0079356Y0154740D01*
X0079296Y0154742D01*
X0079235Y0154747D01*
X0079176Y0154756D01*
X0079117Y0154769D01*
X0079058Y0154785D01*
X0079001Y0154805D01*
X0078946Y0154828D01*
X0078891Y0154855D01*
X0078839Y0154884D01*
X0078788Y0154917D01*
X0078739Y0154953D01*
X0078693Y0154991D01*
X0078649Y0155033D01*
X0078607Y0155077D01*
X0078569Y0155123D01*
X0078533Y0155172D01*
X0078500Y0155223D01*
X0078471Y0155275D01*
X0078444Y0155330D01*
X0078421Y0155385D01*
X0078401Y0155442D01*
X0078385Y0155501D01*
X0078372Y0155560D01*
X0078363Y0155619D01*
X0078358Y0155680D01*
X0078356Y0155740D01*
X0078356Y0157240D01*
X0078856Y0157740D01*
X0078856Y0176740D01*
X0078356Y0177240D01*
X0078356Y0178740D01*
X0078358Y0178800D01*
X0078363Y0178861D01*
X0078372Y0178920D01*
X0078385Y0178979D01*
X0078401Y0179038D01*
X0078421Y0179095D01*
X0078444Y0179150D01*
X0078471Y0179205D01*
X0078500Y0179257D01*
X0078533Y0179308D01*
X0078569Y0179357D01*
X0078607Y0179403D01*
X0078649Y0179447D01*
X0078693Y0179489D01*
X0078739Y0179527D01*
X0078788Y0179563D01*
X0078839Y0179596D01*
X0078891Y0179625D01*
X0078946Y0179652D01*
X0079001Y0179675D01*
X0079058Y0179695D01*
X0079117Y0179711D01*
X0079176Y0179724D01*
X0079235Y0179733D01*
X0079296Y0179738D01*
X0079356Y0179740D01*
X0086356Y0179740D01*
X0086416Y0179738D01*
X0086477Y0179733D01*
X0086536Y0179724D01*
X0086595Y0179711D01*
X0086654Y0179695D01*
X0086711Y0179675D01*
X0086766Y0179652D01*
X0086821Y0179625D01*
X0086873Y0179596D01*
X0086924Y0179563D01*
X0086973Y0179527D01*
X0087019Y0179489D01*
X0087063Y0179447D01*
X0087105Y0179403D01*
X0087143Y0179357D01*
X0087179Y0179308D01*
X0087212Y0179257D01*
X0087241Y0179205D01*
X0087268Y0179150D01*
X0087291Y0179095D01*
X0087311Y0179038D01*
X0087327Y0178979D01*
X0087340Y0178920D01*
X0087349Y0178861D01*
X0087354Y0178800D01*
X0087356Y0178740D01*
X0076056Y0190440D02*
X0076056Y0200440D01*
X0060056Y0200440D01*
X0060056Y0190440D01*
X0076056Y0190440D01*
X0070556Y0195440D02*
X0068056Y0195440D01*
X0068056Y0197940D01*
X0068056Y0195440D02*
X0068056Y0192940D01*
X0068056Y0195440D02*
X0064056Y0192940D01*
X0064056Y0197940D01*
X0068056Y0195440D01*
X0062056Y0195440D01*
X0083556Y0093540D02*
X0090556Y0093540D01*
X0090616Y0093538D01*
X0090677Y0093533D01*
X0090736Y0093524D01*
X0090795Y0093511D01*
X0090854Y0093495D01*
X0090911Y0093475D01*
X0090966Y0093452D01*
X0091021Y0093425D01*
X0091073Y0093396D01*
X0091124Y0093363D01*
X0091173Y0093327D01*
X0091219Y0093289D01*
X0091263Y0093247D01*
X0091305Y0093203D01*
X0091343Y0093157D01*
X0091379Y0093108D01*
X0091412Y0093057D01*
X0091441Y0093005D01*
X0091468Y0092950D01*
X0091491Y0092895D01*
X0091511Y0092838D01*
X0091527Y0092779D01*
X0091540Y0092720D01*
X0091549Y0092661D01*
X0091554Y0092600D01*
X0091556Y0092540D01*
X0091556Y0091040D01*
X0091056Y0090540D01*
X0091056Y0071540D01*
X0091556Y0071040D01*
X0091556Y0069540D01*
X0091554Y0069480D01*
X0091549Y0069419D01*
X0091540Y0069360D01*
X0091527Y0069301D01*
X0091511Y0069242D01*
X0091491Y0069185D01*
X0091468Y0069130D01*
X0091441Y0069075D01*
X0091412Y0069023D01*
X0091379Y0068972D01*
X0091343Y0068923D01*
X0091305Y0068877D01*
X0091263Y0068833D01*
X0091219Y0068791D01*
X0091173Y0068753D01*
X0091124Y0068717D01*
X0091073Y0068684D01*
X0091021Y0068655D01*
X0090966Y0068628D01*
X0090911Y0068605D01*
X0090854Y0068585D01*
X0090795Y0068569D01*
X0090736Y0068556D01*
X0090677Y0068547D01*
X0090616Y0068542D01*
X0090556Y0068540D01*
X0083556Y0068540D01*
X0083496Y0068542D01*
X0083435Y0068547D01*
X0083376Y0068556D01*
X0083317Y0068569D01*
X0083258Y0068585D01*
X0083201Y0068605D01*
X0083146Y0068628D01*
X0083091Y0068655D01*
X0083039Y0068684D01*
X0082988Y0068717D01*
X0082939Y0068753D01*
X0082893Y0068791D01*
X0082849Y0068833D01*
X0082807Y0068877D01*
X0082769Y0068923D01*
X0082733Y0068972D01*
X0082700Y0069023D01*
X0082671Y0069075D01*
X0082644Y0069130D01*
X0082621Y0069185D01*
X0082601Y0069242D01*
X0082585Y0069301D01*
X0082572Y0069360D01*
X0082563Y0069419D01*
X0082558Y0069480D01*
X0082556Y0069540D01*
X0082556Y0071040D01*
X0083056Y0071540D01*
X0083056Y0090540D01*
X0082556Y0091040D01*
X0082556Y0092540D01*
X0082558Y0092600D01*
X0082563Y0092661D01*
X0082572Y0092720D01*
X0082585Y0092779D01*
X0082601Y0092838D01*
X0082621Y0092895D01*
X0082644Y0092950D01*
X0082671Y0093005D01*
X0082700Y0093057D01*
X0082733Y0093108D01*
X0082769Y0093157D01*
X0082807Y0093203D01*
X0082849Y0093247D01*
X0082893Y0093289D01*
X0082939Y0093327D01*
X0082988Y0093363D01*
X0083039Y0093396D01*
X0083091Y0093425D01*
X0083146Y0093452D01*
X0083201Y0093475D01*
X0083258Y0093495D01*
X0083317Y0093511D01*
X0083376Y0093524D01*
X0083435Y0093533D01*
X0083496Y0093538D01*
X0083556Y0093540D01*
X0081056Y0088040D02*
X0071056Y0088040D01*
X0071056Y0072040D01*
X0081056Y0072040D01*
X0081056Y0088040D01*
X0076056Y0082540D02*
X0076056Y0080040D01*
X0073556Y0080040D01*
X0076056Y0080040D02*
X0073556Y0076040D01*
X0078556Y0076040D01*
X0076056Y0080040D01*
X0078556Y0080040D01*
X0076056Y0080040D02*
X0076056Y0074040D01*
X0090956Y0052640D02*
X0091956Y0051640D01*
X0092456Y0040140D01*
X0090956Y0052640D02*
X0053956Y0052640D01*
X0052956Y0051640D01*
X0052456Y0040140D01*
X0047556Y0038916D02*
X0041151Y0038916D01*
X0041151Y0036781D02*
X0041151Y0041051D01*
X0043286Y0043227D02*
X0041151Y0045362D01*
X0047556Y0045362D01*
X0047556Y0043227D02*
X0047556Y0047497D01*
X0047556Y0049672D02*
X0046489Y0049672D01*
X0046489Y0050740D01*
X0047556Y0050740D01*
X0047556Y0049672D01*
X0046489Y0052895D02*
X0042218Y0057165D01*
X0046489Y0057165D01*
X0047556Y0056098D01*
X0047556Y0053962D01*
X0046489Y0052895D01*
X0042218Y0052895D01*
X0041151Y0053962D01*
X0041151Y0056098D01*
X0042218Y0057165D01*
X0041151Y0034606D02*
X0045421Y0034606D01*
X0047556Y0032471D01*
X0045421Y0030336D01*
X0041151Y0030336D01*
X0144951Y0032176D02*
X0144951Y0035379D01*
X0146018Y0036447D01*
X0148154Y0036447D01*
X0149221Y0035379D01*
X0149221Y0032176D01*
X0151356Y0032176D02*
X0144951Y0032176D01*
X0149221Y0034312D02*
X0151356Y0036447D01*
X0151356Y0038622D02*
X0149221Y0040757D01*
X0151356Y0042892D01*
X0144951Y0042892D01*
X0144951Y0045067D02*
X0144951Y0048270D01*
X0146018Y0049338D01*
X0148154Y0049338D01*
X0149221Y0048270D01*
X0149221Y0045067D01*
X0151356Y0045067D02*
X0144951Y0045067D01*
X0144951Y0038622D02*
X0151356Y0038622D01*
X0151356Y0057958D02*
X0147086Y0062229D01*
X0146018Y0062229D01*
X0144951Y0061161D01*
X0144951Y0059026D01*
X0146018Y0057958D01*
X0146018Y0064404D02*
X0144951Y0065471D01*
X0144951Y0067607D01*
X0146018Y0068674D01*
X0150289Y0064404D01*
X0151356Y0065471D01*
X0151356Y0067607D01*
X0150289Y0068674D01*
X0146018Y0068674D01*
X0146018Y0070849D02*
X0144951Y0071917D01*
X0144951Y0074052D01*
X0146018Y0075120D01*
X0147086Y0075120D01*
X0151356Y0070849D01*
X0151356Y0075120D01*
X0150289Y0077295D02*
X0146018Y0081565D01*
X0150289Y0081565D01*
X0151356Y0080498D01*
X0151356Y0078362D01*
X0150289Y0077295D01*
X0146018Y0077295D01*
X0144951Y0078362D01*
X0144951Y0080498D01*
X0146018Y0081565D01*
X0146018Y0064404D02*
X0150289Y0064404D01*
X0151356Y0062229D02*
X0151356Y0057958D01*
D12*
X0087056Y0066840D03*
X0087056Y0095240D03*
X0082856Y0153040D03*
X0082856Y0181440D03*
D13*
X0077210Y0169790D02*
X0072706Y0169790D01*
X0074208Y0169790D02*
X0074208Y0167538D01*
X0074958Y0166788D01*
X0076460Y0166788D01*
X0077210Y0167538D01*
X0077210Y0169790D01*
X0074208Y0168289D02*
X0072706Y0166788D01*
X0072706Y0165186D02*
X0075709Y0162184D01*
X0076460Y0162184D01*
X0077210Y0162935D01*
X0077210Y0164436D01*
X0076460Y0165186D01*
X0072706Y0165186D02*
X0072706Y0162184D01*
X0069705Y0184190D02*
X0066702Y0184190D01*
X0069705Y0187193D01*
X0069705Y0187944D01*
X0068954Y0188694D01*
X0067453Y0188694D01*
X0066702Y0187944D01*
X0065101Y0187944D02*
X0064350Y0188694D01*
X0062099Y0188694D01*
X0062099Y0184190D01*
X0064350Y0184190D01*
X0065101Y0184941D01*
X0065101Y0187944D01*
X0068256Y0208440D02*
X0068256Y0218440D01*
X0128256Y0218440D01*
X0128256Y0208440D01*
X0068256Y0208440D01*
X0095656Y0201640D02*
X0095656Y0031640D01*
X0165656Y0031640D01*
X0165656Y0201640D01*
X0095656Y0201640D01*
X0128256Y0208440D02*
X0138256Y0208440D01*
X0138256Y0218440D01*
X0128256Y0218440D01*
X0084056Y0138940D02*
X0074056Y0138940D01*
X0074056Y0113940D01*
X0084056Y0113940D01*
X0084056Y0138940D01*
X0084361Y0138821D01*
X0084663Y0138696D01*
X0084961Y0138562D01*
X0085256Y0138422D01*
X0085548Y0138274D01*
X0085836Y0138119D01*
X0086120Y0137957D01*
X0086400Y0137789D01*
X0086676Y0137613D01*
X0086947Y0137431D01*
X0087214Y0137242D01*
X0087476Y0137047D01*
X0087733Y0136845D01*
X0087985Y0136637D01*
X0088232Y0136423D01*
X0088474Y0136203D01*
X0088710Y0135977D01*
X0088941Y0135746D01*
X0089166Y0135509D01*
X0089385Y0135266D01*
X0089598Y0135018D01*
X0089805Y0134765D01*
X0090006Y0134507D01*
X0090200Y0134244D01*
X0090388Y0133977D01*
X0090569Y0133705D01*
X0090744Y0133428D01*
X0090911Y0133148D01*
X0091072Y0132863D01*
X0091226Y0132575D01*
X0091373Y0132283D01*
X0091512Y0131987D01*
X0091644Y0131688D01*
X0091769Y0131386D01*
X0091886Y0131081D01*
X0091996Y0130773D01*
X0092099Y0130462D01*
X0092193Y0130150D01*
X0092280Y0129835D01*
X0092359Y0129517D01*
X0092431Y0129198D01*
X0092495Y0128878D01*
X0092550Y0128556D01*
X0092598Y0128232D01*
X0092638Y0127908D01*
X0092670Y0127583D01*
X0092694Y0127257D01*
X0092710Y0126930D01*
X0092718Y0126603D01*
X0092718Y0126277D01*
X0092710Y0125950D01*
X0092694Y0125623D01*
X0092670Y0125297D01*
X0092638Y0124972D01*
X0092598Y0124648D01*
X0092550Y0124324D01*
X0092495Y0124002D01*
X0092431Y0123682D01*
X0092359Y0123363D01*
X0092280Y0123045D01*
X0092193Y0122730D01*
X0092099Y0122418D01*
X0091996Y0122107D01*
X0091886Y0121799D01*
X0091769Y0121494D01*
X0091644Y0121192D01*
X0091512Y0120893D01*
X0091373Y0120597D01*
X0091226Y0120305D01*
X0091072Y0120017D01*
X0090911Y0119732D01*
X0090744Y0119452D01*
X0090569Y0119175D01*
X0090388Y0118903D01*
X0090200Y0118636D01*
X0090006Y0118373D01*
X0089805Y0118115D01*
X0089598Y0117862D01*
X0089385Y0117614D01*
X0089166Y0117371D01*
X0088941Y0117134D01*
X0088710Y0116903D01*
X0088474Y0116677D01*
X0088232Y0116457D01*
X0087985Y0116243D01*
X0087733Y0116035D01*
X0087476Y0115833D01*
X0087214Y0115638D01*
X0086947Y0115449D01*
X0086676Y0115267D01*
X0086400Y0115091D01*
X0086120Y0114923D01*
X0085836Y0114761D01*
X0085548Y0114606D01*
X0085256Y0114458D01*
X0084961Y0114318D01*
X0084663Y0114184D01*
X0084361Y0114059D01*
X0084056Y0113940D01*
X0085306Y0112390D02*
X0089810Y0112390D01*
X0089810Y0110138D01*
X0089060Y0109388D01*
X0087558Y0109388D01*
X0086808Y0110138D01*
X0086808Y0112390D01*
X0086808Y0110889D02*
X0085306Y0109388D01*
X0085306Y0107786D02*
X0085306Y0104784D01*
X0085306Y0106285D02*
X0089810Y0106285D01*
X0088309Y0107786D01*
X0068710Y0075390D02*
X0064206Y0075390D01*
X0064206Y0073138D01*
X0064957Y0072388D01*
X0067960Y0072388D01*
X0068710Y0073138D01*
X0068710Y0075390D01*
X0067209Y0070786D02*
X0068710Y0069285D01*
X0064206Y0069285D01*
X0064206Y0070786D02*
X0064206Y0067784D01*
X0058204Y0059394D02*
X0056702Y0057893D01*
X0055101Y0058644D02*
X0055101Y0055641D01*
X0054350Y0054890D01*
X0052849Y0054890D01*
X0052099Y0055641D01*
X0052099Y0058644D01*
X0052849Y0059394D01*
X0054350Y0059394D01*
X0055101Y0058644D01*
X0053600Y0056392D02*
X0055101Y0054890D01*
X0056702Y0054890D02*
X0059705Y0054890D01*
X0058204Y0054890D02*
X0058204Y0059394D01*
D14*
X0090105Y0186719D02*
X0090107Y0186758D01*
X0090113Y0186797D01*
X0090123Y0186835D01*
X0090136Y0186872D01*
X0090153Y0186907D01*
X0090173Y0186941D01*
X0090197Y0186972D01*
X0090224Y0187001D01*
X0090253Y0187027D01*
X0090285Y0187050D01*
X0090319Y0187070D01*
X0090355Y0187086D01*
X0090392Y0187098D01*
X0090431Y0187107D01*
X0090470Y0187112D01*
X0090509Y0187113D01*
X0090548Y0187110D01*
X0090587Y0187103D01*
X0090624Y0187092D01*
X0090661Y0187078D01*
X0090696Y0187060D01*
X0090729Y0187039D01*
X0090760Y0187014D01*
X0090788Y0186987D01*
X0090813Y0186957D01*
X0090835Y0186924D01*
X0090854Y0186890D01*
X0090869Y0186854D01*
X0090881Y0186816D01*
X0090889Y0186778D01*
X0090893Y0186739D01*
X0090893Y0186699D01*
X0090889Y0186660D01*
X0090881Y0186622D01*
X0090869Y0186584D01*
X0090854Y0186548D01*
X0090835Y0186514D01*
X0090813Y0186481D01*
X0090788Y0186451D01*
X0090760Y0186424D01*
X0090729Y0186399D01*
X0090696Y0186378D01*
X0090661Y0186360D01*
X0090624Y0186346D01*
X0090587Y0186335D01*
X0090548Y0186328D01*
X0090509Y0186325D01*
X0090470Y0186326D01*
X0090431Y0186331D01*
X0090392Y0186340D01*
X0090355Y0186352D01*
X0090319Y0186368D01*
X0090285Y0186388D01*
X0090253Y0186411D01*
X0090224Y0186437D01*
X0090197Y0186466D01*
X0090173Y0186497D01*
X0090153Y0186531D01*
X0090136Y0186566D01*
X0090123Y0186603D01*
X0090113Y0186641D01*
X0090107Y0186680D01*
X0090105Y0186719D01*
D15*
X0069801Y0173123D02*
X0063795Y0173123D01*
X0061893Y0173123D01*
X0046158Y0173123D01*
X0044219Y0173123D01*
X0044219Y0133123D01*
X0041542Y0133123D01*
X0039093Y0133123D01*
X0037912Y0133123D01*
X0037912Y0173123D01*
X0039093Y0173123D01*
X0039093Y0133123D01*
X0041542Y0133123D02*
X0041542Y0173123D01*
X0040758Y0173123D01*
X0039093Y0173123D01*
X0040167Y0174332D02*
X0040758Y0173630D01*
X0040758Y0173123D01*
X0041542Y0173123D02*
X0042388Y0173123D01*
X0044219Y0173123D01*
X0042978Y0174332D02*
X0042388Y0173630D01*
X0042388Y0173123D01*
X0042978Y0174332D02*
X0042978Y0175368D01*
X0040167Y0175368D01*
X0040167Y0174332D01*
X0046416Y0163123D02*
X0046418Y0163308D01*
X0046425Y0163493D01*
X0046436Y0163678D01*
X0046452Y0163862D01*
X0046473Y0164046D01*
X0046498Y0164229D01*
X0046527Y0164412D01*
X0046561Y0164594D01*
X0046599Y0164775D01*
X0046642Y0164955D01*
X0046689Y0165134D01*
X0046741Y0165311D01*
X0046797Y0165488D01*
X0046857Y0165663D01*
X0046921Y0165836D01*
X0046990Y0166008D01*
X0047063Y0166178D01*
X0047140Y0166346D01*
X0047221Y0166513D01*
X0047306Y0166677D01*
X0047395Y0166839D01*
X0047489Y0166999D01*
X0047586Y0167156D01*
X0047687Y0167311D01*
X0047791Y0167464D01*
X0047900Y0167614D01*
X0048012Y0167761D01*
X0048127Y0167906D01*
X0048246Y0168047D01*
X0048369Y0168186D01*
X0048495Y0168321D01*
X0048624Y0168454D01*
X0048757Y0168583D01*
X0048892Y0168709D01*
X0049031Y0168832D01*
X0049172Y0168951D01*
X0049317Y0169066D01*
X0049464Y0169178D01*
X0049614Y0169287D01*
X0049767Y0169391D01*
X0049922Y0169492D01*
X0050079Y0169589D01*
X0050239Y0169683D01*
X0050401Y0169772D01*
X0050565Y0169857D01*
X0050732Y0169938D01*
X0050900Y0170015D01*
X0051070Y0170088D01*
X0051242Y0170157D01*
X0051415Y0170221D01*
X0051590Y0170281D01*
X0051767Y0170337D01*
X0051944Y0170389D01*
X0052123Y0170436D01*
X0052303Y0170479D01*
X0052484Y0170517D01*
X0052666Y0170551D01*
X0052849Y0170580D01*
X0053032Y0170605D01*
X0053216Y0170626D01*
X0053400Y0170642D01*
X0053585Y0170653D01*
X0053770Y0170660D01*
X0053955Y0170662D01*
X0054140Y0170660D01*
X0054325Y0170653D01*
X0054510Y0170642D01*
X0054694Y0170626D01*
X0054878Y0170605D01*
X0055061Y0170580D01*
X0055244Y0170551D01*
X0055426Y0170517D01*
X0055607Y0170479D01*
X0055787Y0170436D01*
X0055966Y0170389D01*
X0056143Y0170337D01*
X0056320Y0170281D01*
X0056495Y0170221D01*
X0056668Y0170157D01*
X0056840Y0170088D01*
X0057010Y0170015D01*
X0057178Y0169938D01*
X0057345Y0169857D01*
X0057509Y0169772D01*
X0057671Y0169683D01*
X0057831Y0169589D01*
X0057988Y0169492D01*
X0058143Y0169391D01*
X0058296Y0169287D01*
X0058446Y0169178D01*
X0058593Y0169066D01*
X0058738Y0168951D01*
X0058879Y0168832D01*
X0059018Y0168709D01*
X0059153Y0168583D01*
X0059286Y0168454D01*
X0059415Y0168321D01*
X0059541Y0168186D01*
X0059664Y0168047D01*
X0059783Y0167906D01*
X0059898Y0167761D01*
X0060010Y0167614D01*
X0060119Y0167464D01*
X0060223Y0167311D01*
X0060324Y0167156D01*
X0060421Y0166999D01*
X0060515Y0166839D01*
X0060604Y0166677D01*
X0060689Y0166513D01*
X0060770Y0166346D01*
X0060847Y0166178D01*
X0060920Y0166008D01*
X0060989Y0165836D01*
X0061053Y0165663D01*
X0061113Y0165488D01*
X0061169Y0165311D01*
X0061221Y0165134D01*
X0061268Y0164955D01*
X0061311Y0164775D01*
X0061349Y0164594D01*
X0061383Y0164412D01*
X0061412Y0164229D01*
X0061437Y0164046D01*
X0061458Y0163862D01*
X0061474Y0163678D01*
X0061485Y0163493D01*
X0061492Y0163308D01*
X0061494Y0163123D01*
X0061492Y0162938D01*
X0061485Y0162753D01*
X0061474Y0162568D01*
X0061458Y0162384D01*
X0061437Y0162200D01*
X0061412Y0162017D01*
X0061383Y0161834D01*
X0061349Y0161652D01*
X0061311Y0161471D01*
X0061268Y0161291D01*
X0061221Y0161112D01*
X0061169Y0160935D01*
X0061113Y0160758D01*
X0061053Y0160583D01*
X0060989Y0160410D01*
X0060920Y0160238D01*
X0060847Y0160068D01*
X0060770Y0159900D01*
X0060689Y0159733D01*
X0060604Y0159569D01*
X0060515Y0159407D01*
X0060421Y0159247D01*
X0060324Y0159090D01*
X0060223Y0158935D01*
X0060119Y0158782D01*
X0060010Y0158632D01*
X0059898Y0158485D01*
X0059783Y0158340D01*
X0059664Y0158199D01*
X0059541Y0158060D01*
X0059415Y0157925D01*
X0059286Y0157792D01*
X0059153Y0157663D01*
X0059018Y0157537D01*
X0058879Y0157414D01*
X0058738Y0157295D01*
X0058593Y0157180D01*
X0058446Y0157068D01*
X0058296Y0156959D01*
X0058143Y0156855D01*
X0057988Y0156754D01*
X0057831Y0156657D01*
X0057671Y0156563D01*
X0057509Y0156474D01*
X0057345Y0156389D01*
X0057178Y0156308D01*
X0057010Y0156231D01*
X0056840Y0156158D01*
X0056668Y0156089D01*
X0056495Y0156025D01*
X0056320Y0155965D01*
X0056143Y0155909D01*
X0055966Y0155857D01*
X0055787Y0155810D01*
X0055607Y0155767D01*
X0055426Y0155729D01*
X0055244Y0155695D01*
X0055061Y0155666D01*
X0054878Y0155641D01*
X0054694Y0155620D01*
X0054510Y0155604D01*
X0054325Y0155593D01*
X0054140Y0155586D01*
X0053955Y0155584D01*
X0053770Y0155586D01*
X0053585Y0155593D01*
X0053400Y0155604D01*
X0053216Y0155620D01*
X0053032Y0155641D01*
X0052849Y0155666D01*
X0052666Y0155695D01*
X0052484Y0155729D01*
X0052303Y0155767D01*
X0052123Y0155810D01*
X0051944Y0155857D01*
X0051767Y0155909D01*
X0051590Y0155965D01*
X0051415Y0156025D01*
X0051242Y0156089D01*
X0051070Y0156158D01*
X0050900Y0156231D01*
X0050732Y0156308D01*
X0050565Y0156389D01*
X0050401Y0156474D01*
X0050239Y0156563D01*
X0050079Y0156657D01*
X0049922Y0156754D01*
X0049767Y0156855D01*
X0049614Y0156959D01*
X0049464Y0157068D01*
X0049317Y0157180D01*
X0049172Y0157295D01*
X0049031Y0157414D01*
X0048892Y0157537D01*
X0048757Y0157663D01*
X0048624Y0157792D01*
X0048495Y0157925D01*
X0048369Y0158060D01*
X0048246Y0158199D01*
X0048127Y0158340D01*
X0048012Y0158485D01*
X0047900Y0158632D01*
X0047791Y0158782D01*
X0047687Y0158935D01*
X0047586Y0159090D01*
X0047489Y0159247D01*
X0047395Y0159407D01*
X0047306Y0159569D01*
X0047221Y0159733D01*
X0047140Y0159900D01*
X0047063Y0160068D01*
X0046990Y0160238D01*
X0046921Y0160410D01*
X0046857Y0160583D01*
X0046797Y0160758D01*
X0046741Y0160935D01*
X0046689Y0161112D01*
X0046642Y0161291D01*
X0046599Y0161471D01*
X0046561Y0161652D01*
X0046527Y0161834D01*
X0046498Y0162017D01*
X0046473Y0162200D01*
X0046452Y0162384D01*
X0046436Y0162568D01*
X0046425Y0162753D01*
X0046418Y0162938D01*
X0046416Y0163123D01*
X0046416Y0143123D02*
X0046418Y0143308D01*
X0046425Y0143493D01*
X0046436Y0143678D01*
X0046452Y0143862D01*
X0046473Y0144046D01*
X0046498Y0144229D01*
X0046527Y0144412D01*
X0046561Y0144594D01*
X0046599Y0144775D01*
X0046642Y0144955D01*
X0046689Y0145134D01*
X0046741Y0145311D01*
X0046797Y0145488D01*
X0046857Y0145663D01*
X0046921Y0145836D01*
X0046990Y0146008D01*
X0047063Y0146178D01*
X0047140Y0146346D01*
X0047221Y0146513D01*
X0047306Y0146677D01*
X0047395Y0146839D01*
X0047489Y0146999D01*
X0047586Y0147156D01*
X0047687Y0147311D01*
X0047791Y0147464D01*
X0047900Y0147614D01*
X0048012Y0147761D01*
X0048127Y0147906D01*
X0048246Y0148047D01*
X0048369Y0148186D01*
X0048495Y0148321D01*
X0048624Y0148454D01*
X0048757Y0148583D01*
X0048892Y0148709D01*
X0049031Y0148832D01*
X0049172Y0148951D01*
X0049317Y0149066D01*
X0049464Y0149178D01*
X0049614Y0149287D01*
X0049767Y0149391D01*
X0049922Y0149492D01*
X0050079Y0149589D01*
X0050239Y0149683D01*
X0050401Y0149772D01*
X0050565Y0149857D01*
X0050732Y0149938D01*
X0050900Y0150015D01*
X0051070Y0150088D01*
X0051242Y0150157D01*
X0051415Y0150221D01*
X0051590Y0150281D01*
X0051767Y0150337D01*
X0051944Y0150389D01*
X0052123Y0150436D01*
X0052303Y0150479D01*
X0052484Y0150517D01*
X0052666Y0150551D01*
X0052849Y0150580D01*
X0053032Y0150605D01*
X0053216Y0150626D01*
X0053400Y0150642D01*
X0053585Y0150653D01*
X0053770Y0150660D01*
X0053955Y0150662D01*
X0054140Y0150660D01*
X0054325Y0150653D01*
X0054510Y0150642D01*
X0054694Y0150626D01*
X0054878Y0150605D01*
X0055061Y0150580D01*
X0055244Y0150551D01*
X0055426Y0150517D01*
X0055607Y0150479D01*
X0055787Y0150436D01*
X0055966Y0150389D01*
X0056143Y0150337D01*
X0056320Y0150281D01*
X0056495Y0150221D01*
X0056668Y0150157D01*
X0056840Y0150088D01*
X0057010Y0150015D01*
X0057178Y0149938D01*
X0057345Y0149857D01*
X0057509Y0149772D01*
X0057671Y0149683D01*
X0057831Y0149589D01*
X0057988Y0149492D01*
X0058143Y0149391D01*
X0058296Y0149287D01*
X0058446Y0149178D01*
X0058593Y0149066D01*
X0058738Y0148951D01*
X0058879Y0148832D01*
X0059018Y0148709D01*
X0059153Y0148583D01*
X0059286Y0148454D01*
X0059415Y0148321D01*
X0059541Y0148186D01*
X0059664Y0148047D01*
X0059783Y0147906D01*
X0059898Y0147761D01*
X0060010Y0147614D01*
X0060119Y0147464D01*
X0060223Y0147311D01*
X0060324Y0147156D01*
X0060421Y0146999D01*
X0060515Y0146839D01*
X0060604Y0146677D01*
X0060689Y0146513D01*
X0060770Y0146346D01*
X0060847Y0146178D01*
X0060920Y0146008D01*
X0060989Y0145836D01*
X0061053Y0145663D01*
X0061113Y0145488D01*
X0061169Y0145311D01*
X0061221Y0145134D01*
X0061268Y0144955D01*
X0061311Y0144775D01*
X0061349Y0144594D01*
X0061383Y0144412D01*
X0061412Y0144229D01*
X0061437Y0144046D01*
X0061458Y0143862D01*
X0061474Y0143678D01*
X0061485Y0143493D01*
X0061492Y0143308D01*
X0061494Y0143123D01*
X0061492Y0142938D01*
X0061485Y0142753D01*
X0061474Y0142568D01*
X0061458Y0142384D01*
X0061437Y0142200D01*
X0061412Y0142017D01*
X0061383Y0141834D01*
X0061349Y0141652D01*
X0061311Y0141471D01*
X0061268Y0141291D01*
X0061221Y0141112D01*
X0061169Y0140935D01*
X0061113Y0140758D01*
X0061053Y0140583D01*
X0060989Y0140410D01*
X0060920Y0140238D01*
X0060847Y0140068D01*
X0060770Y0139900D01*
X0060689Y0139733D01*
X0060604Y0139569D01*
X0060515Y0139407D01*
X0060421Y0139247D01*
X0060324Y0139090D01*
X0060223Y0138935D01*
X0060119Y0138782D01*
X0060010Y0138632D01*
X0059898Y0138485D01*
X0059783Y0138340D01*
X0059664Y0138199D01*
X0059541Y0138060D01*
X0059415Y0137925D01*
X0059286Y0137792D01*
X0059153Y0137663D01*
X0059018Y0137537D01*
X0058879Y0137414D01*
X0058738Y0137295D01*
X0058593Y0137180D01*
X0058446Y0137068D01*
X0058296Y0136959D01*
X0058143Y0136855D01*
X0057988Y0136754D01*
X0057831Y0136657D01*
X0057671Y0136563D01*
X0057509Y0136474D01*
X0057345Y0136389D01*
X0057178Y0136308D01*
X0057010Y0136231D01*
X0056840Y0136158D01*
X0056668Y0136089D01*
X0056495Y0136025D01*
X0056320Y0135965D01*
X0056143Y0135909D01*
X0055966Y0135857D01*
X0055787Y0135810D01*
X0055607Y0135767D01*
X0055426Y0135729D01*
X0055244Y0135695D01*
X0055061Y0135666D01*
X0054878Y0135641D01*
X0054694Y0135620D01*
X0054510Y0135604D01*
X0054325Y0135593D01*
X0054140Y0135586D01*
X0053955Y0135584D01*
X0053770Y0135586D01*
X0053585Y0135593D01*
X0053400Y0135604D01*
X0053216Y0135620D01*
X0053032Y0135641D01*
X0052849Y0135666D01*
X0052666Y0135695D01*
X0052484Y0135729D01*
X0052303Y0135767D01*
X0052123Y0135810D01*
X0051944Y0135857D01*
X0051767Y0135909D01*
X0051590Y0135965D01*
X0051415Y0136025D01*
X0051242Y0136089D01*
X0051070Y0136158D01*
X0050900Y0136231D01*
X0050732Y0136308D01*
X0050565Y0136389D01*
X0050401Y0136474D01*
X0050239Y0136563D01*
X0050079Y0136657D01*
X0049922Y0136754D01*
X0049767Y0136855D01*
X0049614Y0136959D01*
X0049464Y0137068D01*
X0049317Y0137180D01*
X0049172Y0137295D01*
X0049031Y0137414D01*
X0048892Y0137537D01*
X0048757Y0137663D01*
X0048624Y0137792D01*
X0048495Y0137925D01*
X0048369Y0138060D01*
X0048246Y0138199D01*
X0048127Y0138340D01*
X0048012Y0138485D01*
X0047900Y0138632D01*
X0047791Y0138782D01*
X0047687Y0138935D01*
X0047586Y0139090D01*
X0047489Y0139247D01*
X0047395Y0139407D01*
X0047306Y0139569D01*
X0047221Y0139733D01*
X0047140Y0139900D01*
X0047063Y0140068D01*
X0046990Y0140238D01*
X0046921Y0140410D01*
X0046857Y0140583D01*
X0046797Y0140758D01*
X0046741Y0140935D01*
X0046689Y0141112D01*
X0046642Y0141291D01*
X0046599Y0141471D01*
X0046561Y0141652D01*
X0046527Y0141834D01*
X0046498Y0142017D01*
X0046473Y0142200D01*
X0046452Y0142384D01*
X0046436Y0142568D01*
X0046425Y0142753D01*
X0046418Y0142938D01*
X0046416Y0143123D01*
X0046158Y0133123D02*
X0044219Y0133123D01*
X0046158Y0133123D02*
X0061893Y0133123D01*
X0063795Y0133123D01*
X0069801Y0133123D01*
X0069801Y0173123D01*
X0063795Y0173123D02*
X0063795Y0133123D01*
X0063294Y0120157D02*
X0061355Y0120157D01*
X0045620Y0120157D01*
X0043718Y0120157D01*
X0037712Y0120157D01*
X0037712Y0080157D01*
X0043718Y0080157D01*
X0045620Y0080157D01*
X0061355Y0080157D01*
X0063294Y0080157D01*
X0063294Y0120157D01*
X0065971Y0120157D01*
X0068420Y0120157D01*
X0069601Y0120157D01*
X0069601Y0080157D01*
X0068420Y0080157D01*
X0068420Y0120157D01*
X0065971Y0120157D02*
X0065971Y0080157D01*
X0066755Y0080157D01*
X0068420Y0080157D01*
X0067345Y0078949D02*
X0066755Y0079651D01*
X0066755Y0080157D01*
X0065971Y0080157D02*
X0065125Y0080157D01*
X0063294Y0080157D01*
X0064534Y0078949D02*
X0065125Y0079651D01*
X0065125Y0080157D01*
X0064534Y0078949D02*
X0064534Y0077913D01*
X0067345Y0077913D01*
X0067345Y0078949D01*
X0046019Y0090157D02*
X0046021Y0090342D01*
X0046028Y0090527D01*
X0046039Y0090712D01*
X0046055Y0090896D01*
X0046076Y0091080D01*
X0046101Y0091263D01*
X0046130Y0091446D01*
X0046164Y0091628D01*
X0046202Y0091809D01*
X0046245Y0091989D01*
X0046292Y0092168D01*
X0046344Y0092345D01*
X0046400Y0092522D01*
X0046460Y0092697D01*
X0046524Y0092870D01*
X0046593Y0093042D01*
X0046666Y0093212D01*
X0046743Y0093380D01*
X0046824Y0093547D01*
X0046909Y0093711D01*
X0046998Y0093873D01*
X0047092Y0094033D01*
X0047189Y0094190D01*
X0047290Y0094345D01*
X0047394Y0094498D01*
X0047503Y0094648D01*
X0047615Y0094795D01*
X0047730Y0094940D01*
X0047849Y0095081D01*
X0047972Y0095220D01*
X0048098Y0095355D01*
X0048227Y0095488D01*
X0048360Y0095617D01*
X0048495Y0095743D01*
X0048634Y0095866D01*
X0048775Y0095985D01*
X0048920Y0096100D01*
X0049067Y0096212D01*
X0049217Y0096321D01*
X0049370Y0096425D01*
X0049525Y0096526D01*
X0049682Y0096623D01*
X0049842Y0096717D01*
X0050004Y0096806D01*
X0050168Y0096891D01*
X0050335Y0096972D01*
X0050503Y0097049D01*
X0050673Y0097122D01*
X0050845Y0097191D01*
X0051018Y0097255D01*
X0051193Y0097315D01*
X0051370Y0097371D01*
X0051547Y0097423D01*
X0051726Y0097470D01*
X0051906Y0097513D01*
X0052087Y0097551D01*
X0052269Y0097585D01*
X0052452Y0097614D01*
X0052635Y0097639D01*
X0052819Y0097660D01*
X0053003Y0097676D01*
X0053188Y0097687D01*
X0053373Y0097694D01*
X0053558Y0097696D01*
X0053743Y0097694D01*
X0053928Y0097687D01*
X0054113Y0097676D01*
X0054297Y0097660D01*
X0054481Y0097639D01*
X0054664Y0097614D01*
X0054847Y0097585D01*
X0055029Y0097551D01*
X0055210Y0097513D01*
X0055390Y0097470D01*
X0055569Y0097423D01*
X0055746Y0097371D01*
X0055923Y0097315D01*
X0056098Y0097255D01*
X0056271Y0097191D01*
X0056443Y0097122D01*
X0056613Y0097049D01*
X0056781Y0096972D01*
X0056948Y0096891D01*
X0057112Y0096806D01*
X0057274Y0096717D01*
X0057434Y0096623D01*
X0057591Y0096526D01*
X0057746Y0096425D01*
X0057899Y0096321D01*
X0058049Y0096212D01*
X0058196Y0096100D01*
X0058341Y0095985D01*
X0058482Y0095866D01*
X0058621Y0095743D01*
X0058756Y0095617D01*
X0058889Y0095488D01*
X0059018Y0095355D01*
X0059144Y0095220D01*
X0059267Y0095081D01*
X0059386Y0094940D01*
X0059501Y0094795D01*
X0059613Y0094648D01*
X0059722Y0094498D01*
X0059826Y0094345D01*
X0059927Y0094190D01*
X0060024Y0094033D01*
X0060118Y0093873D01*
X0060207Y0093711D01*
X0060292Y0093547D01*
X0060373Y0093380D01*
X0060450Y0093212D01*
X0060523Y0093042D01*
X0060592Y0092870D01*
X0060656Y0092697D01*
X0060716Y0092522D01*
X0060772Y0092345D01*
X0060824Y0092168D01*
X0060871Y0091989D01*
X0060914Y0091809D01*
X0060952Y0091628D01*
X0060986Y0091446D01*
X0061015Y0091263D01*
X0061040Y0091080D01*
X0061061Y0090896D01*
X0061077Y0090712D01*
X0061088Y0090527D01*
X0061095Y0090342D01*
X0061097Y0090157D01*
X0061095Y0089972D01*
X0061088Y0089787D01*
X0061077Y0089602D01*
X0061061Y0089418D01*
X0061040Y0089234D01*
X0061015Y0089051D01*
X0060986Y0088868D01*
X0060952Y0088686D01*
X0060914Y0088505D01*
X0060871Y0088325D01*
X0060824Y0088146D01*
X0060772Y0087969D01*
X0060716Y0087792D01*
X0060656Y0087617D01*
X0060592Y0087444D01*
X0060523Y0087272D01*
X0060450Y0087102D01*
X0060373Y0086934D01*
X0060292Y0086767D01*
X0060207Y0086603D01*
X0060118Y0086441D01*
X0060024Y0086281D01*
X0059927Y0086124D01*
X0059826Y0085969D01*
X0059722Y0085816D01*
X0059613Y0085666D01*
X0059501Y0085519D01*
X0059386Y0085374D01*
X0059267Y0085233D01*
X0059144Y0085094D01*
X0059018Y0084959D01*
X0058889Y0084826D01*
X0058756Y0084697D01*
X0058621Y0084571D01*
X0058482Y0084448D01*
X0058341Y0084329D01*
X0058196Y0084214D01*
X0058049Y0084102D01*
X0057899Y0083993D01*
X0057746Y0083889D01*
X0057591Y0083788D01*
X0057434Y0083691D01*
X0057274Y0083597D01*
X0057112Y0083508D01*
X0056948Y0083423D01*
X0056781Y0083342D01*
X0056613Y0083265D01*
X0056443Y0083192D01*
X0056271Y0083123D01*
X0056098Y0083059D01*
X0055923Y0082999D01*
X0055746Y0082943D01*
X0055569Y0082891D01*
X0055390Y0082844D01*
X0055210Y0082801D01*
X0055029Y0082763D01*
X0054847Y0082729D01*
X0054664Y0082700D01*
X0054481Y0082675D01*
X0054297Y0082654D01*
X0054113Y0082638D01*
X0053928Y0082627D01*
X0053743Y0082620D01*
X0053558Y0082618D01*
X0053373Y0082620D01*
X0053188Y0082627D01*
X0053003Y0082638D01*
X0052819Y0082654D01*
X0052635Y0082675D01*
X0052452Y0082700D01*
X0052269Y0082729D01*
X0052087Y0082763D01*
X0051906Y0082801D01*
X0051726Y0082844D01*
X0051547Y0082891D01*
X0051370Y0082943D01*
X0051193Y0082999D01*
X0051018Y0083059D01*
X0050845Y0083123D01*
X0050673Y0083192D01*
X0050503Y0083265D01*
X0050335Y0083342D01*
X0050168Y0083423D01*
X0050004Y0083508D01*
X0049842Y0083597D01*
X0049682Y0083691D01*
X0049525Y0083788D01*
X0049370Y0083889D01*
X0049217Y0083993D01*
X0049067Y0084102D01*
X0048920Y0084214D01*
X0048775Y0084329D01*
X0048634Y0084448D01*
X0048495Y0084571D01*
X0048360Y0084697D01*
X0048227Y0084826D01*
X0048098Y0084959D01*
X0047972Y0085094D01*
X0047849Y0085233D01*
X0047730Y0085374D01*
X0047615Y0085519D01*
X0047503Y0085666D01*
X0047394Y0085816D01*
X0047290Y0085969D01*
X0047189Y0086124D01*
X0047092Y0086281D01*
X0046998Y0086441D01*
X0046909Y0086603D01*
X0046824Y0086767D01*
X0046743Y0086934D01*
X0046666Y0087102D01*
X0046593Y0087272D01*
X0046524Y0087444D01*
X0046460Y0087617D01*
X0046400Y0087792D01*
X0046344Y0087969D01*
X0046292Y0088146D01*
X0046245Y0088325D01*
X0046202Y0088505D01*
X0046164Y0088686D01*
X0046130Y0088868D01*
X0046101Y0089051D01*
X0046076Y0089234D01*
X0046055Y0089418D01*
X0046039Y0089602D01*
X0046028Y0089787D01*
X0046021Y0089972D01*
X0046019Y0090157D01*
X0043718Y0080157D02*
X0043718Y0120157D01*
X0046019Y0110157D02*
X0046021Y0110342D01*
X0046028Y0110527D01*
X0046039Y0110712D01*
X0046055Y0110896D01*
X0046076Y0111080D01*
X0046101Y0111263D01*
X0046130Y0111446D01*
X0046164Y0111628D01*
X0046202Y0111809D01*
X0046245Y0111989D01*
X0046292Y0112168D01*
X0046344Y0112345D01*
X0046400Y0112522D01*
X0046460Y0112697D01*
X0046524Y0112870D01*
X0046593Y0113042D01*
X0046666Y0113212D01*
X0046743Y0113380D01*
X0046824Y0113547D01*
X0046909Y0113711D01*
X0046998Y0113873D01*
X0047092Y0114033D01*
X0047189Y0114190D01*
X0047290Y0114345D01*
X0047394Y0114498D01*
X0047503Y0114648D01*
X0047615Y0114795D01*
X0047730Y0114940D01*
X0047849Y0115081D01*
X0047972Y0115220D01*
X0048098Y0115355D01*
X0048227Y0115488D01*
X0048360Y0115617D01*
X0048495Y0115743D01*
X0048634Y0115866D01*
X0048775Y0115985D01*
X0048920Y0116100D01*
X0049067Y0116212D01*
X0049217Y0116321D01*
X0049370Y0116425D01*
X0049525Y0116526D01*
X0049682Y0116623D01*
X0049842Y0116717D01*
X0050004Y0116806D01*
X0050168Y0116891D01*
X0050335Y0116972D01*
X0050503Y0117049D01*
X0050673Y0117122D01*
X0050845Y0117191D01*
X0051018Y0117255D01*
X0051193Y0117315D01*
X0051370Y0117371D01*
X0051547Y0117423D01*
X0051726Y0117470D01*
X0051906Y0117513D01*
X0052087Y0117551D01*
X0052269Y0117585D01*
X0052452Y0117614D01*
X0052635Y0117639D01*
X0052819Y0117660D01*
X0053003Y0117676D01*
X0053188Y0117687D01*
X0053373Y0117694D01*
X0053558Y0117696D01*
X0053743Y0117694D01*
X0053928Y0117687D01*
X0054113Y0117676D01*
X0054297Y0117660D01*
X0054481Y0117639D01*
X0054664Y0117614D01*
X0054847Y0117585D01*
X0055029Y0117551D01*
X0055210Y0117513D01*
X0055390Y0117470D01*
X0055569Y0117423D01*
X0055746Y0117371D01*
X0055923Y0117315D01*
X0056098Y0117255D01*
X0056271Y0117191D01*
X0056443Y0117122D01*
X0056613Y0117049D01*
X0056781Y0116972D01*
X0056948Y0116891D01*
X0057112Y0116806D01*
X0057274Y0116717D01*
X0057434Y0116623D01*
X0057591Y0116526D01*
X0057746Y0116425D01*
X0057899Y0116321D01*
X0058049Y0116212D01*
X0058196Y0116100D01*
X0058341Y0115985D01*
X0058482Y0115866D01*
X0058621Y0115743D01*
X0058756Y0115617D01*
X0058889Y0115488D01*
X0059018Y0115355D01*
X0059144Y0115220D01*
X0059267Y0115081D01*
X0059386Y0114940D01*
X0059501Y0114795D01*
X0059613Y0114648D01*
X0059722Y0114498D01*
X0059826Y0114345D01*
X0059927Y0114190D01*
X0060024Y0114033D01*
X0060118Y0113873D01*
X0060207Y0113711D01*
X0060292Y0113547D01*
X0060373Y0113380D01*
X0060450Y0113212D01*
X0060523Y0113042D01*
X0060592Y0112870D01*
X0060656Y0112697D01*
X0060716Y0112522D01*
X0060772Y0112345D01*
X0060824Y0112168D01*
X0060871Y0111989D01*
X0060914Y0111809D01*
X0060952Y0111628D01*
X0060986Y0111446D01*
X0061015Y0111263D01*
X0061040Y0111080D01*
X0061061Y0110896D01*
X0061077Y0110712D01*
X0061088Y0110527D01*
X0061095Y0110342D01*
X0061097Y0110157D01*
X0061095Y0109972D01*
X0061088Y0109787D01*
X0061077Y0109602D01*
X0061061Y0109418D01*
X0061040Y0109234D01*
X0061015Y0109051D01*
X0060986Y0108868D01*
X0060952Y0108686D01*
X0060914Y0108505D01*
X0060871Y0108325D01*
X0060824Y0108146D01*
X0060772Y0107969D01*
X0060716Y0107792D01*
X0060656Y0107617D01*
X0060592Y0107444D01*
X0060523Y0107272D01*
X0060450Y0107102D01*
X0060373Y0106934D01*
X0060292Y0106767D01*
X0060207Y0106603D01*
X0060118Y0106441D01*
X0060024Y0106281D01*
X0059927Y0106124D01*
X0059826Y0105969D01*
X0059722Y0105816D01*
X0059613Y0105666D01*
X0059501Y0105519D01*
X0059386Y0105374D01*
X0059267Y0105233D01*
X0059144Y0105094D01*
X0059018Y0104959D01*
X0058889Y0104826D01*
X0058756Y0104697D01*
X0058621Y0104571D01*
X0058482Y0104448D01*
X0058341Y0104329D01*
X0058196Y0104214D01*
X0058049Y0104102D01*
X0057899Y0103993D01*
X0057746Y0103889D01*
X0057591Y0103788D01*
X0057434Y0103691D01*
X0057274Y0103597D01*
X0057112Y0103508D01*
X0056948Y0103423D01*
X0056781Y0103342D01*
X0056613Y0103265D01*
X0056443Y0103192D01*
X0056271Y0103123D01*
X0056098Y0103059D01*
X0055923Y0102999D01*
X0055746Y0102943D01*
X0055569Y0102891D01*
X0055390Y0102844D01*
X0055210Y0102801D01*
X0055029Y0102763D01*
X0054847Y0102729D01*
X0054664Y0102700D01*
X0054481Y0102675D01*
X0054297Y0102654D01*
X0054113Y0102638D01*
X0053928Y0102627D01*
X0053743Y0102620D01*
X0053558Y0102618D01*
X0053373Y0102620D01*
X0053188Y0102627D01*
X0053003Y0102638D01*
X0052819Y0102654D01*
X0052635Y0102675D01*
X0052452Y0102700D01*
X0052269Y0102729D01*
X0052087Y0102763D01*
X0051906Y0102801D01*
X0051726Y0102844D01*
X0051547Y0102891D01*
X0051370Y0102943D01*
X0051193Y0102999D01*
X0051018Y0103059D01*
X0050845Y0103123D01*
X0050673Y0103192D01*
X0050503Y0103265D01*
X0050335Y0103342D01*
X0050168Y0103423D01*
X0050004Y0103508D01*
X0049842Y0103597D01*
X0049682Y0103691D01*
X0049525Y0103788D01*
X0049370Y0103889D01*
X0049217Y0103993D01*
X0049067Y0104102D01*
X0048920Y0104214D01*
X0048775Y0104329D01*
X0048634Y0104448D01*
X0048495Y0104571D01*
X0048360Y0104697D01*
X0048227Y0104826D01*
X0048098Y0104959D01*
X0047972Y0105094D01*
X0047849Y0105233D01*
X0047730Y0105374D01*
X0047615Y0105519D01*
X0047503Y0105666D01*
X0047394Y0105816D01*
X0047290Y0105969D01*
X0047189Y0106124D01*
X0047092Y0106281D01*
X0046998Y0106441D01*
X0046909Y0106603D01*
X0046824Y0106767D01*
X0046743Y0106934D01*
X0046666Y0107102D01*
X0046593Y0107272D01*
X0046524Y0107444D01*
X0046460Y0107617D01*
X0046400Y0107792D01*
X0046344Y0107969D01*
X0046292Y0108146D01*
X0046245Y0108325D01*
X0046202Y0108505D01*
X0046164Y0108686D01*
X0046130Y0108868D01*
X0046101Y0109051D01*
X0046076Y0109234D01*
X0046055Y0109418D01*
X0046039Y0109602D01*
X0046028Y0109787D01*
X0046021Y0109972D01*
X0046019Y0110157D01*
D16*
X0048949Y0120935D02*
X0052018Y0125539D01*
X0053552Y0124005D02*
X0055087Y0125539D01*
X0055087Y0120935D01*
X0053552Y0120935D02*
X0056622Y0120935D01*
X0052018Y0120935D02*
X0048949Y0125539D01*
X0067756Y0126036D02*
X0067756Y0122967D01*
X0067756Y0126036D02*
X0070826Y0122967D01*
X0071593Y0122967D01*
X0072360Y0123735D01*
X0072360Y0125269D01*
X0071593Y0126036D01*
X0071593Y0127571D02*
X0068524Y0127571D01*
X0067756Y0128338D01*
X0067756Y0129873D01*
X0068524Y0130640D01*
X0071593Y0130640D01*
X0072360Y0129873D01*
X0072360Y0128338D01*
X0071593Y0127571D01*
X0069291Y0129106D02*
X0067756Y0127571D01*
X0058430Y0174746D02*
X0055360Y0174746D01*
X0058430Y0177815D01*
X0058430Y0178582D01*
X0057662Y0179349D01*
X0056128Y0179349D01*
X0055360Y0178582D01*
X0053826Y0179349D02*
X0050756Y0174746D01*
X0053826Y0174746D02*
X0050756Y0179349D01*
X0139579Y0211808D02*
X0140347Y0211040D01*
X0141881Y0211040D01*
X0142649Y0211808D01*
X0142649Y0212575D01*
X0141881Y0213342D01*
X0140347Y0213342D01*
X0139579Y0214110D01*
X0139579Y0214877D01*
X0140347Y0215644D01*
X0141881Y0215644D01*
X0142649Y0214877D01*
X0144183Y0215644D02*
X0145718Y0215644D01*
X0144950Y0215644D02*
X0144950Y0211040D01*
X0144183Y0211040D02*
X0145718Y0211040D01*
X0147252Y0211040D02*
X0147252Y0215644D01*
X0148787Y0214110D01*
X0150322Y0215644D01*
X0150322Y0211040D01*
D17*
X0090156Y0050240D03*
D18*
X0072456Y0037140D03*
D19*
X0089706Y0039640D03*
X0055206Y0039640D03*
D20*
X0067456Y0039640D03*
X0077456Y0039640D03*
D21*
X0076056Y0085540D03*
D22*
X0076056Y0091790D03*
X0076056Y0068290D03*
D23*
X0073556Y0195440D03*
D24*
X0079806Y0195440D03*
X0056306Y0195440D03*
M02*
