%
M48
M72
T01C0.02362
T02C0.02500
T03C0.03200
T04C0.03543
T05C0.04000
T06C0.04331
T07C0.04400
T08C0.05118
T09C0.09843
%
T01
X132056Y155240
X61656Y212640
X123256Y136640
T02
X79056Y136440
X79056Y126440
X79056Y116440
T03
X82856Y147240
X82856Y187240
X87056Y101040
X87056Y61040
T04
X100656Y186640
X100656Y176640
X100656Y166640
X100656Y156640
X100656Y146640
X100656Y136640
X100656Y126640
X100656Y116640
X100656Y106640
X100656Y96640
X100656Y86640
X100656Y76640
X100656Y66640
X100656Y56640
X100656Y46640
X160656Y46640
X160656Y56640
X160656Y66640
X160656Y76640
X160656Y86640
X160656Y96640
X160656Y106640
X160656Y116640
X160656Y126640
X160656Y136640
X160656Y146640
X160656Y156640
X160656Y166640
X160656Y176640
X160656Y186640
T05
X82456Y45640
X72456Y45640
X62456Y45640
T06
X133256Y213440
X123256Y213440
X113256Y213440
X103256Y213440
X93256Y213440
X83256Y213440
X73256Y213440
T07
X76056Y60040
X76056Y100040
X48056Y195440
X88056Y195440
T08
X53955Y163123
X53955Y143123
X53558Y90157
X53558Y110157
T09
X45656Y66440
X48256Y214040
X158256Y213240
M30
